<svg xmlns="http://www.w3.org/2000/svg" width="600" height="593" viewBox="0 0 600 593" version="1.1"><path d="M 328 308.500 L 325.651 311 336.151 311 C 346.058 311, 346.784 310.859, 349 308.500 L 351.349 306 340.849 306 C 330.942 306, 330.216 306.141, 328 308.500 M 335.632 313.746 C 326.897 314.076, 326.790 314.111, 328.537 316.041 C 330.084 317.750, 331.653 318, 340.829 318 L 351.349 318 349 315.500 C 347.708 314.125, 346.167 313.093, 345.576 313.206 C 344.984 313.319, 340.509 313.562, 335.632 313.746 M 328.627 322.860 C 327.013 324.644, 327.136 324.747, 331.611 325.360 C 341.528 326.719, 346.473 326.190, 349 323.500 L 351.349 321 340.829 321 C 331.844 321, 330.065 321.271, 328.627 322.860" stroke="none" fill="#52a7c4" fill-rule="evenodd"/><path d="M 423.458 34.171 C 421.471 35.916, 416.785 42.009, 413.045 47.712 C 406.060 58.362, 405 58.876, 405 51.609 C 405 47.021, 402.941 44.667, 398.930 44.667 C 396.040 44.667, 394.597 45.718, 388.491 52.276 C 384.593 56.461, 379.851 62.623, 377.952 65.968 C 372.338 75.859, 373.043 75.629, 367.980 69.231 C 365.494 66.090, 362.616 63.357, 361.584 63.158 C 359.940 62.842, 359.774 63.282, 360.237 66.730 C 360.877 71.501, 367.622 88.798, 369.819 91.299 C 370.841 92.463, 372.473 92.992, 374.449 92.799 C 377.204 92.529, 377.937 91.627, 382.007 83.500 C 386.489 74.551, 392.701 65, 394.040 65 C 394.425 65, 395.312 67.042, 396.011 69.538 C 397.474 74.766, 401.257 78.330, 404.407 77.450 C 407.881 76.480, 413.321 69.726, 421.300 56.475 C 429.897 42.200, 432.887 34.774, 430.970 32.464 C 429.154 30.276, 427.453 30.663, 423.458 34.171 M 275.500 41.615 C 261.033 44.986, 223.334 55.847, 205.598 61.753 C 197.844 64.336, 190.245 66.316, 188.711 66.155 C 182.882 65.542, 159.390 74.934, 146.690 82.954 C 133.387 91.356, 128.126 100.764, 129.365 113.939 C 130.202 122.849, 137.977 153.772, 143.629 170.675 C 155.552 206.328, 175.110 240.860, 188.227 249.416 C 192.304 252.076, 192.869 252.844, 192.336 255 C 191.996 256.375, 191.444 258.949, 191.109 260.720 C 190.563 263.608, 189.572 264.393, 181.500 268.333 C 176.550 270.749, 166.946 275.967, 160.158 279.929 C 148.740 286.593, 147.588 287.052, 144.759 286.066 C 143.077 285.480, 139.249 285, 136.251 285 C 131.344 285, 130.447 285.353, 127.265 288.535 L 123.730 292.070 116.520 286.548 C 108.911 280.720, 92 263.803, 92 262.019 C 92 261.442, 93.592 258.572, 95.537 255.642 C 102.101 245.756, 101.558 238.420, 93.679 230.562 C 88.563 225.460, 77.848 220, 72.950 220 C 67.859 220, 54 230.741, 54 234.686 C 54 237.650, 57.320 240.131, 62.607 241.119 C 68.549 242.229, 70 243.467, 70 247.426 C 70 251.524, 65.743 255.686, 57 260.137 C 51.545 262.914, 49.397 263.451, 43.638 263.473 C 36.959 263.499, 36.691 263.402, 33.584 259.811 C 31.434 257.324, 29.515 253.189, 27.701 247.129 C 24.734 237.218, 23.202 235.791, 18.300 238.370 C 14.575 240.330, 6.630 248.675, 4.549 252.813 C 0.026 261.810, 3.504 271.247, 14.766 280.537 C 27.902 291.372, 33.497 292.320, 47 286 C 59.650 280.079, 60.136 280.198, 68.494 291.251 C 76.710 302.116, 101.158 326.982, 112.309 335.815 C 121.695 343.249, 124.471 343.685, 130.999 338.750 C 133.364 336.962, 135.888 335.064, 136.608 334.531 C 137.506 333.867, 139.355 334.260, 142.486 335.781 C 149.700 339.286, 154.354 338.739, 174.420 332.027 C 184.242 328.741, 192.665 326.293, 193.139 326.586 C 193.612 326.879, 194 328.649, 194 330.521 C 194 335.750, 197.820 364.673, 199.507 372.216 C 204.427 394.219, 216.202 412.442, 230.749 420.568 C 233.636 422.181, 235.998 423.736, 235.999 424.024 C 236 424.313, 231.613 426.721, 226.250 429.377 C 210.870 436.993, 166.021 460.926, 160.448 464.491 L 155.395 467.722 153.555 461.295 C 150.114 449.279, 141.712 439.047, 131.418 434.334 C 124.269 431.061, 107.326 430.516, 102 433.387 C 87.063 441.440, 78.909 456.601, 78.814 476.500 C 78.754 489.135, 80.636 498.351, 88.065 521.787 C 94.811 543.071, 96.526 545.850, 105.934 550.750 C 111.589 553.695, 112.988 553.998, 120.837 553.978 C 131.991 553.950, 136.099 552.116, 145.399 543.015 C 149.304 539.193, 159.700 530.100, 168.500 522.808 C 177.300 515.517, 193.500 501.872, 204.500 492.487 C 215.500 483.102, 235.519 466.227, 248.987 454.987 L 273.473 434.551 289.047 434.526 L 304.620 434.500 307.925 440.157 C 312.543 448.062, 319.300 455.991, 327.500 463.126 C 338.717 472.887, 362.204 491.127, 364.851 492.133 C 367.956 493.314, 371.345 490.587, 370.736 487.398 C 370.432 485.810, 371.139 484.764, 373.412 483.436 C 378.797 480.289, 384.944 474.692, 389.798 468.516 C 393.853 463.356, 394.500 461.899, 394.500 457.931 C 394.500 451.381, 391.410 447.437, 372.862 430.310 L 357.072 415.731 360.822 413.014 C 371.495 405.283, 375.023 397.258, 381.010 367.106 C 383.587 354.123, 386.534 338.438, 387.558 332.250 L 389.419 321 397.050 321 C 415.260 321, 439.686 331.940, 449.812 344.632 C 452.389 347.861, 454.831 348.835, 456.405 347.261 C 456.812 346.855, 459.558 346.517, 462.508 346.511 C 467.758 346.500, 467.884 346.568, 468.474 349.715 C 469.200 353.582, 470.552 354.617, 472.629 352.893 C 474.163 351.620, 474.115 348.609, 472.494 344.500 C 471.045 340.825, 473.668 344.264, 476.504 349.759 C 477.997 352.651, 479.637 355.276, 480.149 355.592 C 481.414 356.374, 480.061 350.907, 478.518 349 C 477.850 348.175, 477.003 346.656, 476.635 345.624 C 475.995 343.829, 476.077 343.821, 478.550 345.441 C 480.638 346.809, 481.421 346.895, 482.633 345.890 C 484.258 344.541, 487 339.683, 487 338.153 C 487 337.633, 484.513 333.988, 481.474 330.054 C 475.903 322.845, 476.441 322.237, 483.594 327.656 C 485.296 328.945, 487.373 330, 488.210 330 C 489.046 330, 490.940 330.951, 492.418 332.114 C 493.896 333.277, 495.338 333.996, 495.622 333.711 C 496.743 332.590, 493.342 328.845, 490.715 328.306 C 488.075 327.766, 488.017 327.639, 489.603 325.887 C 491.769 323.493, 490.230 321.453, 485.602 320.585 C 483.772 320.242, 481.425 319.015, 480.387 317.860 L 478.500 315.758 483.570 316.448 C 487.562 316.991, 488.917 316.805, 489.943 315.569 C 491.651 313.511, 492.423 314.370, 468.537 291.749 C 438.589 263.386, 425.802 255.959, 406.361 255.635 L 398.222 255.500 397.547 247.803 C 396.354 234.206, 392.778 231.511, 371.825 228.421 C 362.891 227.103, 356.594 226.880, 342 227.362 C 331.825 227.698, 321.137 228.261, 318.250 228.614 C 309.424 229.691, 311.551 227.003, 323.750 221.665 C 347.579 211.238, 352.958 203.374, 353.783 177.761 C 355.034 138.975, 344.583 88.970, 330.013 64.023 C 324.794 55.086, 315.111 45.145, 308.500 41.937 C 301.160 38.375, 289.875 38.265, 275.500 41.615 M 279.500 48.069 C 265.333 51.091, 218.355 64.641, 197.788 71.637 C 179.357 77.907, 161.987 84.990, 148.759 91.632 C 139.304 96.379, 136.462 100.775, 136.605 110.428 C 136.766 121.227, 144.894 153.695, 153.093 176.287 C 162.208 201.405, 181.026 234.892, 190.036 242.028 C 200.213 250.089, 208.239 249.935, 244 240.996 C 273.719 233.566, 310.848 220.673, 329.107 211.440 C 343.951 203.935, 347.743 193.951, 346.688 165.153 C 345.125 122.526, 333.409 78.767, 318.458 59.718 C 307.972 46.358, 299.458 43.812, 279.500 48.069 M 283.500 77.317 C 263.811 83.926, 254.762 92.634, 252.073 107.562 C 249.284 123.038, 257.616 138.108, 273 145.413 C 278.852 148.192, 280.448 148.499, 289 148.493 C 297.598 148.486, 299.141 148.182, 305.259 145.291 C 314.303 141.017, 322.005 133.609, 325.498 125.825 C 327.913 120.443, 328.187 118.817, 327.770 112.322 C 326.972 99.877, 317.800 84.022, 308.703 79.362 C 306.942 78.459, 305.214 77.277, 304.863 76.735 C 304.513 76.193, 301.138 75.573, 297.363 75.359 C 292.051 75.056, 288.918 75.499, 283.500 77.317 M 264.160 96.308 C 258.858 102.695, 257.344 116.499, 261.074 124.433 C 263.947 130.546, 269.356 135.806, 275.933 138.883 C 282.729 142.062, 294.255 142.475, 300 139.746 C 303.314 138.171, 303.341 138.121, 300.500 138.791 C 298.850 139.181, 293.866 139.500, 289.424 139.500 C 282.277 139.500, 280.868 139.182, 277.173 136.735 C 271.985 133.300, 266.571 126.043, 264.400 119.616 C 262.318 113.451, 262.283 103.630, 264.327 98.750 C 265.985 94.791, 265.942 94.160, 264.160 96.308 M 201.344 107.010 C 183.245 111.717, 171.376 122.565, 167.417 138.018 C 162.234 158.248, 174.458 176.769, 195.195 180.109 C 211.893 182.798, 233.125 170.966, 241.576 154.263 C 245.592 146.324, 246.138 136.516, 242.973 129.159 C 240.338 123.033, 232.014 114.904, 223.948 110.579 C 220.952 108.972, 218.275 107.347, 218 106.967 C 216.737 105.224, 208.126 105.246, 201.344 107.010 M 84.500 109 C 83.400 109.473, 80.445 109.891, 77.934 109.930 C 65.691 110.118, 45.615 115.948, 48.224 118.558 C 48.621 118.954, 53.795 118.546, 59.723 117.650 C 65.650 116.754, 72.874 115.904, 75.775 115.760 C 80.928 115.506, 81.038 115.558, 80.512 118 C 78.846 125.732, 77.033 137.925, 76.469 145.193 C 75.574 156.731, 76.222 157.480, 87.169 157.562 C 94.003 157.613, 96.555 158.107, 101.371 160.312 C 104.600 161.790, 108.762 163, 110.621 163 C 116.321 163, 119.630 157.915, 117.058 153.109 C 115.660 150.496, 102.997 145.024, 95.458 143.774 C 89.466 142.782, 88.912 142.488, 89.395 140.562 C 89.688 139.396, 90.240 132.202, 90.623 124.574 C 91.265 111.774, 91.177 110.602, 89.468 109.353 C 87.378 107.825, 87.255 107.816, 84.500 109 M 179.153 127.948 C 170.958 139.260, 171.503 155.729, 180.388 165.292 C 183.570 168.716, 192.457 172.977, 196.446 172.990 C 199.328 173, 199.293 172.937, 194.808 170.093 C 182.989 162.598, 176.351 142.097, 181.260 128.250 C 182.088 125.912, 182.597 124, 182.389 124 C 182.182 124, 180.726 125.777, 179.153 127.948 M 317.512 155.981 C 317.179 156.520, 317.222 161.551, 317.608 167.159 L 318.311 177.357 314.905 174.997 C 313.032 173.698, 308.736 170.468, 305.358 167.818 C 301.980 165.168, 298.509 163, 297.643 163 C 295.209 163, 294 166.298, 294 172.934 C 294 176.270, 293.663 178.983, 293.250 178.963 C 292.837 178.943, 289.394 176.733, 285.598 174.053 C 281.802 171.372, 278.055 169.425, 277.272 169.726 C 275.048 170.579, 274.006 174.503, 273.930 182.315 C 273.813 194.239, 273.707 194.267, 263.566 185.004 C 250.679 173.233, 250.338 173.453, 248.067 195 C 246.317 211.611, 246.716 211.121, 240.112 204.751 C 230.748 195.718, 223.104 189.746, 221.629 190.312 C 220.391 190.787, 218.937 195.947, 216.223 209.500 C 215.549 212.862, 214.989 213.550, 212.711 213.816 C 211.220 213.990, 210 214.520, 210 214.994 C 210 217.443, 225.717 225.706, 228.411 224.673 C 231.947 223.316, 230.099 220.370, 224.084 217.775 L 218.168 215.222 220.834 206.760 L 223.500 198.298 234.871 209.149 C 245.925 219.698, 248.652 221.343, 250.782 218.750 C 251.834 217.469, 256 194.732, 256 190.269 C 256 188.012, 256.700 188.416, 263.750 194.737 C 278.694 208.136, 279.472 207.975, 280.684 191.237 L 281.500 179.974 288.310 184.549 C 297.775 190.906, 299.243 190.523, 300.403 181.396 L 301.306 174.292 310.678 180.646 C 315.832 184.141, 320.623 187, 321.325 187 C 324.046 187, 325 184.476, 325 177.277 L 325 169.954 327.440 171.553 C 328.783 172.432, 330.020 174.130, 330.190 175.326 C 330.390 176.730, 331.208 177.500, 332.500 177.500 C 334.219 177.500, 334.604 176.587, 335.238 171 C 336.197 162.540, 335.667 161.024, 332.719 163.795 L 330.489 165.889 326.685 160.444 C 323.887 156.442, 322.250 155, 320.499 155 C 319.189 155, 317.845 155.441, 317.512 155.981 M 521.316 165.960 C 516.467 169.238, 509.368 174.607, 505.541 177.890 C 501.713 181.173, 498.226 183.640, 497.791 183.371 C 497.356 183.102, 497 179.168, 497 174.630 C 497 167.722, 496.670 166.022, 494.972 164.201 C 492.075 161.091, 488.770 160.553, 484.858 162.556 C 473.257 168.493, 448.984 188.325, 447.466 193.106 C 447.119 194.200, 447.377 195.749, 448.040 196.548 C 450.503 199.515, 453.868 198.283, 470.834 188.200 C 480.973 182.175, 481.251 182.191, 482.505 188.880 C 483.261 192.906, 487.205 201.096, 489.178 202.732 C 489.911 203.341, 491.683 204.133, 493.114 204.493 C 495.422 205.072, 496.953 203.916, 506.609 194.304 C 512.599 188.341, 521.626 180.580, 526.669 177.057 C 536.337 170.303, 538.741 167.252, 536.982 163.966 C 535.941 162.021, 532.960 160, 531.131 160 C 530.581 160, 526.164 162.682, 521.316 165.960 M 68.973 226.651 C 65.552 228.935, 60 234.223, 60 235.196 C 60 235.638, 61.096 236, 62.435 236 C 65.832 236, 70.093 237.752, 72.750 240.241 C 75.820 243.116, 75.807 249.507, 72.722 254.085 C 67.850 261.314, 52.744 269.028, 43.556 268.978 C 38.089 268.948, 31.821 265.943, 28.708 261.859 C 27.300 260.011, 25.142 255.350, 23.913 251.500 C 22.683 247.650, 21.298 244.071, 20.835 243.546 C 19.841 242.421, 11.539 250.170, 9.420 254.200 C 7.175 258.469, 7.625 264.984, 10.451 269.143 C 12.862 272.691, 23.254 281.533, 27.840 283.939 C 32.077 286.162, 38.034 285.388, 45.972 281.582 C 50.081 279.612, 54.189 278, 55.100 278 C 56.012 278, 57.321 276.638, 58.011 274.974 C 60.163 269.778, 68.423 263.259, 75.702 261.010 C 79.282 259.905, 83.512 259, 85.103 259 C 87.469 259, 88.540 258.134, 90.980 254.250 C 98.181 242.785, 95.554 235.417, 81.813 228.543 C 73.797 224.533, 72.443 224.333, 68.973 226.651 M 306.667 228.667 C 305.356 229.978, 306.034 230.804, 308 230.290 C 309.100 230.002, 310 229.369, 310 228.883 C 310 227.850, 307.637 227.697, 306.667 228.667 M 321 235.599 C 307.315 237.248, 246.119 248.136, 230.500 251.702 C 224.450 253.083, 215.002 254.503, 209.504 254.856 L 199.509 255.500 198.350 260.500 C 196.122 270.119, 196.820 290.926, 200.551 326.059 C 204.354 361.880, 206.513 374.138, 210.927 384.986 C 220.483 408.467, 232.409 417.290, 264.236 424.422 C 280.146 427.987, 292.079 428.654, 303.688 426.626 C 321.381 423.536, 349.234 412.943, 358.072 405.943 C 362.380 402.531, 366.063 396.907, 368.484 390.045 C 372.464 378.765, 386.752 297.535, 389.509 270.510 C 391.081 255.108, 390.869 244.590, 388.911 240.864 C 387.975 239.083, 378.865 236.593, 367.500 235.013 C 357.753 233.658, 334.710 233.948, 321 235.599 M 397.484 265.750 C 396.534 274.027, 391.980 307.044, 391.381 310 C 390.908 312.332, 391.082 312.265, 393.982 309 C 402.290 299.643, 414.416 273.476, 413.806 266.221 C 413.475 262.282, 413.436 262.263, 402.322 260.618 L 398.144 259.999 397.484 265.750 M 74.086 265.693 C 67.009 268.231, 57.523 279, 62.365 279 C 63.116 279, 64.845 279.877, 66.208 280.949 L 68.686 282.899 71.834 278.433 C 74.907 274.073, 83.019 268, 85.769 268 C 86.541 268, 87.001 267.230, 86.815 266.250 C 86.366 263.887, 79.911 263.605, 74.086 265.693 M 417.222 268.053 C 416.511 278.413, 404.476 302.457, 395.517 311.416 L 392.196 314.738 401.348 315.360 C 406.382 315.702, 411.850 316.217, 413.500 316.504 C 416.263 316.986, 416.986 316.415, 422.652 309.264 C 430.038 299.943, 435.038 291.712, 438.523 283.135 C 440.990 277.064, 441.028 276.689, 439.363 274.849 C 437.549 272.844, 420.658 263.999, 418.648 264.001 C 418.017 264.002, 417.375 265.825, 417.222 268.053 M 183.722 272.274 L 177.944 276.441 178.568 280.971 C 179.516 287.835, 184.366 301.356, 188.079 307.483 C 189.900 310.487, 191.524 312.810, 191.688 312.645 C 191.853 312.481, 191.492 308.556, 190.886 303.923 C 190.280 299.290, 189.721 289.313, 189.642 281.751 C 189.564 274.189, 189.500 268.026, 189.500 268.055 C 189.500 268.084, 186.900 269.983, 183.722 272.274 M 85 270.727 C 81.345 272.115, 75.164 277.156, 72.623 280.822 C 69.894 284.761, 69.879 284.865, 71.568 288.159 C 72.510 289.996, 77.127 295.440, 81.828 300.256 C 90.219 308.854, 91.941 309.622, 91.985 304.788 C 92.014 301.490, 96.199 291.892, 99.484 287.589 L 102.799 283.247 96.124 276.623 C 89.697 270.246, 88.267 269.487, 85 270.727 M 166.250 284.045 C 157.259 289.836, 157 290.109, 157 293.791 C 157 305.413, 167.173 326, 172.916 326 C 174.640 326, 191.931 320.402, 192.757 319.577 C 193.001 319.332, 192.224 318.090, 191.030 316.816 C 184.619 309.975, 177.612 294.434, 176.276 284.089 L 175.500 278.088 166.250 284.045 M 86.070 285.250 C 86.182 295.175, 87.847 296.966, 87.930 287.250 C 87.971 282.370, 87.592 279, 87 279 C 86.433 279, 86.030 281.703, 86.070 285.250 M 442.229 284.830 C 438.878 293.473, 430.784 305.998, 424.472 312.310 L 418.864 317.918 425.570 320.959 C 429.259 322.632, 432.777 323.996, 433.388 323.991 C 434.781 323.980, 444.761 315.487, 448.746 310.922 C 451.912 307.295, 458.262 297.596, 459.248 294.882 C 459.805 293.348, 457.244 290.494, 447.481 281.768 L 444.463 279.069 442.229 284.830 M 90.677 286.236 C 88.782 293.777, 88.628 295.348, 89.857 294.588 C 90.955 293.910, 93.373 282.618, 92.793 280.878 C 92.551 280.153, 91.599 282.564, 90.677 286.236 M 101.101 289.842 C 97.566 295.352, 95.422 301.004, 94.477 307.307 C 93.828 311.634, 93.947 311.910, 98.153 315.771 C 100.544 317.966, 105.875 322.578, 110 326.019 L 117.500 332.275 118.156 317.888 C 118.517 309.974, 119.221 302.150, 119.721 300.500 C 120.602 297.589, 120.384 297.316, 112.387 291.300 L 104.145 285.099 101.101 289.842 M 323 286.607 C 316.675 287.357, 310.500 288.412, 309.278 288.952 C 306.289 290.270, 305.508 294.055, 307.045 299.770 C 307.780 302.502, 308.375 311.047, 308.452 320 C 308.597 336.678, 308.953 338.100, 314.054 342.392 C 316.771 344.678, 318.039 344.998, 324.327 344.980 C 333.264 344.956, 350.807 342.618, 357.675 340.536 C 365.638 338.122, 367.459 335.276, 368.847 323.069 C 369.481 317.492, 370 308.245, 370 302.520 C 370 293.165, 369.772 291.847, 367.750 289.503 C 366.506 288.062, 363.711 286.482, 361.500 285.972 C 355.879 284.673, 336.616 284.991, 323 286.607 M 174.505 294.576 C 178.808 302.269, 178.756 304.262, 174.442 296.995 C 172.824 294.270, 171.136 292.031, 170.691 292.020 C 169.770 291.997, 170.196 292.810, 174.232 298.771 C 175.823 301.119, 177.508 302.804, 177.977 302.514 C 178.446 302.225, 179.057 302.553, 179.336 303.244 C 179.716 304.188, 179.862 304.163, 179.921 303.143 C 180.025 301.360, 172.745 288.015, 171.664 288.007 C 171.204 288.003, 172.483 290.959, 174.505 294.576 M 133.500 292.018 C 132.400 292.434, 130.474 294.175, 129.220 295.887 C 127.966 297.599, 126.106 299, 125.087 299 C 122.490 299, 121.960 301.541, 121.303 317.140 C 120.696 331.547, 121.186 336, 123.378 336 C 124.115 336, 126.763 334.200, 129.263 332 C 132.171 329.440, 134.780 328, 136.510 328 C 138.416 328, 139.056 327.587, 138.677 326.601 C 136.068 319.801, 135.264 298.894, 137.419 293.879 C 138.267 291.905, 136.288 290.965, 133.500 292.018 M 152 292.616 C 150.308 293.577, 147.998 293.843, 144.851 293.438 L 140.203 292.840 139.431 297.170 C 138.421 302.834, 138.689 313.094, 139.977 318.057 C 140.540 320.225, 141.458 323.766, 142.018 325.924 C 142.897 329.313, 143.644 330.081, 147.492 331.550 C 151.864 333.220, 152.109 333.202, 160.533 330.575 L 169.118 327.899 166.065 324.421 C 160.142 317.675, 155.155 305.200, 154.868 296.409 C 154.771 293.434, 154.648 291.044, 154.596 291.098 C 154.543 291.152, 153.375 291.835, 152 292.616 M 316.367 293.726 L 312.234 294.104 313.199 297.802 C 313.971 300.758, 314.634 314.032, 314.969 333.250 C 314.986 334.212, 315.958 335.958, 317.128 337.128 C 319.131 339.131, 319.881 339.214, 329.878 338.554 C 341.163 337.808, 353.729 335.744, 358.217 333.901 C 359.711 333.287, 361.190 331.976, 361.504 330.988 C 362.695 327.234, 364.962 307.195, 364.980 300.250 L 365 293 342.750 293.175 C 330.512 293.271, 318.640 293.519, 316.367 293.726 M 332.211 297.129 C 327.487 298.491, 321.335 305.043, 319.950 310.187 C 317.534 319.158, 320.915 328.126, 328.337 332.434 C 336.583 337.221, 344.926 336.638, 351.564 330.809 C 356.517 326.461, 358 323.048, 358 316 C 358 309.297, 356.641 305.889, 352.339 301.803 C 346.854 296.593, 339.772 294.948, 332.211 297.129 M 459 302.265 C 455.037 309.291, 444.323 320.539, 438.839 323.429 L 435.180 325.358 440.634 329.179 C 443.634 331.281, 446.406 332.982, 446.794 332.959 C 447.182 332.937, 448.977 331.655, 450.782 330.110 C 453.762 327.560, 453.966 327.040, 452.992 324.478 C 451.208 319.788, 452.325 318.642, 458.021 319.316 C 460.759 319.640, 463 319.588, 463 319.200 C 463 318.811, 461.418 316.268, 459.484 313.548 C 456.496 309.346, 456.175 308.396, 457.347 307.224 C 458.490 306.081, 459.785 306.054, 464.921 307.064 C 473.952 308.841, 474.801 307.397, 468.494 300.994 C 465.789 298.247, 463.333 296.013, 463.038 296.030 C 462.742 296.046, 460.925 298.852, 459 302.265 M 147 297.935 C 147 298.449, 147.463 300.087, 148.028 301.574 C 149.506 305.461, 148.443 305.758, 146.500 302 C 145.594 300.248, 144.621 299.046, 144.337 299.330 C 144.053 299.613, 145.702 303.065, 148 307 C 150.298 310.935, 152.376 313.957, 152.617 313.716 C 153.131 313.202, 148.130 297, 147.456 297 C 147.205 297, 147 297.421, 147 297.935 M 107.485 299.024 C 106.275 300.982, 109.593 313.370, 111.081 312.450 C 112.212 311.751, 112.115 303.409, 110.936 300 C 110.347 298.298, 110.211 299.574, 110.511 304 L 110.950 310.500 109.550 305.637 C 108.780 302.962, 108.389 300.150, 108.682 299.387 C 109.299 297.779, 108.419 297.513, 107.485 299.024 M 131.729 301.604 C 131.328 302.005, 130.964 304.396, 130.921 306.917 C 130.878 309.438, 130.588 310.825, 130.277 310 C 129.967 309.175, 129.315 307.425, 128.828 306.111 C 128.342 304.798, 127.735 303.932, 127.479 304.188 C 126.692 304.975, 131.431 317.487, 132.597 317.699 C 133.344 317.834, 133.558 315.445, 133.269 310.199 C 132.769 301.127, 132.684 300.649, 131.729 301.604 M 328 308.500 L 325.651 311 336.151 311 C 346.058 311, 346.784 310.859, 349 308.500 L 351.349 306 340.849 306 C 330.942 306, 330.216 306.141, 328 308.500 M 549.166 313.271 C 543.767 317.586, 539.014 324.096, 539.005 327.191 C 538.994 330.906, 541.444 330.072, 546.745 324.556 C 549.766 321.411, 552.559 319.212, 552.951 319.669 C 553.343 320.126, 554.371 323.886, 555.235 328.025 C 557.828 340.447, 561.053 349.958, 563.031 351.017 C 565.889 352.546, 567.664 351.258, 571.100 345.160 C 572.855 342.047, 575.427 338.006, 576.817 336.181 C 579.745 332.334, 580.390 332.934, 581.455 340.500 C 581.843 343.250, 583.281 348.875, 584.652 353 C 589.048 366.229, 595.135 373.293, 598.897 369.532 C 600.632 367.797, 600.506 367.326, 594.509 353.121 C 593.028 349.612, 591.104 342.862, 590.234 338.121 C 588.980 331.291, 588.080 328.929, 585.903 326.750 C 580.879 321.725, 574.233 324.032, 568.906 332.651 C 566.206 337.021, 566.064 336.809, 562.470 323 C 559.264 310.684, 558.511 308.999, 556.215 309.004 C 555.272 309.006, 552.100 310.926, 549.166 313.271 M 335.632 313.746 C 326.897 314.076, 326.790 314.111, 328.537 316.041 C 330.084 317.750, 331.653 318, 340.829 318 L 351.349 318 349 315.500 C 347.708 314.125, 346.167 313.093, 345.576 313.206 C 344.984 313.319, 340.509 313.562, 335.632 313.746 M 475.663 317.670 C 474.664 318.670, 484.287 325, 486.806 325 C 489.936 325, 488.697 323.312, 484.965 322.492 C 483.308 322.128, 480.675 320.756, 479.115 319.443 C 477.554 318.130, 476.001 317.332, 475.663 317.670 M 328.627 322.860 C 327.013 324.644, 327.136 324.747, 331.611 325.360 C 341.528 326.719, 346.473 326.190, 349 323.500 L 351.349 321 340.829 321 C 331.844 321, 330.065 321.271, 328.627 322.860 M 471.758 324.818 C 471.136 327.197, 469.599 327.440, 463.750 326.081 C 460.793 325.395, 460 325.506, 460 326.605 C 460 328.167, 463.497 332, 464.921 332 C 465.428 332, 469.721 334.240, 474.461 336.978 C 481.675 341.144, 483.181 341.693, 483.697 340.347 C 484.499 338.258, 481.988 333.719, 476.627 327.568 C 472.686 323.045, 472.281 322.817, 471.758 324.818 M 451.192 332.152 L 447.884 334.270 450.557 337.059 C 452.027 338.594, 453.818 339.623, 454.537 339.348 C 455.256 339.072, 456.795 339.355, 457.958 339.978 C 460.061 341.103, 460.063 341.088, 458.428 337.305 C 457.523 335.212, 456.554 332.712, 456.275 331.750 C 455.632 329.536, 455.227 329.568, 451.192 332.152 M 467.287 342.624 C 468.686 345.306, 470.288 348.625, 470.848 350 L 471.865 352.500 471.916 349.500 C 471.973 346.155, 468.254 338.904, 466.121 338.202 C 465.206 337.900, 465.597 339.385, 467.287 342.624 M 208.554 352.500 C 209.418 357.216, 213.769 372.102, 214.496 372.829 C 215.544 373.877, 214.908 370.692, 212.003 360.346 C 208.881 349.231, 207.294 345.619, 208.554 352.500 M 213.058 355.083 C 213.153 357.374, 218.877 371.667, 218.942 369.773 C 218.998 368.118, 214.448 355.114, 213.471 354.138 C 213.212 353.879, 213.026 354.304, 213.058 355.083 M 216.612 356.500 C 216.965 357.600, 218.006 360.847, 218.926 363.716 C 219.846 366.585, 220.951 369.284, 221.381 369.714 C 222.747 371.080, 220.864 364.688, 218.373 359.500 C 217.052 356.750, 216.260 355.400, 216.612 356.500 M 81.381 367.840 C 77.094 370.550, 75.986 374.422, 76.681 384.271 L 77.264 392.527 69.156 392.159 C 53.889 391.465, 39 398.505, 39 406.416 C 39 412.924, 43.480 413.670, 53.023 408.750 C 58.460 405.947, 60.301 405.509, 66.413 405.569 C 72.048 405.623, 74.569 406.187, 78.717 408.319 C 85.153 411.627, 87.024 411.668, 89.941 408.563 C 92.170 406.190, 92.211 405.786, 91.506 393.108 L 90.782 380.090 94.141 380.501 C 107.481 382.131, 122.182 383.171, 124.318 382.635 C 127.280 381.892, 128.555 378.906, 127.085 376.158 C 125.707 373.584, 120.099 371.466, 108.289 369.059 C 92.408 365.823, 85.097 365.491, 81.381 367.840 M 415.667 372.667 C 413.368 374.965, 418.228 403.384, 421.547 407.051 C 424.957 410.820, 429.855 409.931, 432.854 405 L 434.720 401.931 438.946 408.418 C 444.568 417.046, 451.070 423, 454.871 423 C 456.570 423, 458.032 422.359, 458.376 421.464 C 459.255 419.173, 456.814 412.990, 451.798 404.798 C 449.340 400.784, 446.116 395.371, 444.633 392.768 C 443.150 390.166, 441.081 387.579, 440.034 387.018 C 437.591 385.711, 431.304 385.698, 430.500 387 C 429.362 388.841, 428.317 388.030, 426.429 383.842 C 422.581 375.309, 417.893 370.441, 415.667 372.667 M 345.388 421.376 C 334.366 425.474, 323.383 433.174, 318.227 440.421 L 315.615 444.092 320.746 449.222 L 325.877 454.353 330.387 449.337 C 337.829 441.059, 356.778 429.058, 362.500 428.999 C 364.038 428.983, 363.231 427.837, 359 424.032 C 355.975 421.312, 353.050 419.091, 352.500 419.095 C 351.950 419.100, 348.750 420.127, 345.388 421.376 M 236.500 429.668 C 233.750 431.085, 231.360 432.366, 231.189 432.516 C 231.019 432.665, 232.052 433.961, 233.486 435.395 C 236.323 438.232, 240.975 447.440, 240.990 450.250 C 241.006 453.044, 242.730 452.343, 249.455 446.809 C 255.542 441.800, 255.726 441.514, 254.717 438.619 C 253.399 434.836, 245.636 426.985, 243.276 427.047 C 242.299 427.072, 239.250 428.252, 236.500 429.668 M 323 429.146 C 321.625 429.706, 317.459 430.921, 313.743 431.846 L 306.986 433.527 310.104 437.310 C 311.819 439.390, 313.510 440.959, 313.861 440.796 C 314.677 440.418, 326.441 427.979, 325.902 428.063 C 325.681 428.098, 324.375 428.585, 323 429.146 M 253.628 431.090 C 254.799 432.415, 256.395 434.753, 257.174 436.284 L 258.591 439.068 262.259 436.284 C 264.277 434.753, 265.944 433.225, 265.964 432.888 C 265.984 432.551, 263.637 431.798, 260.750 431.213 C 257.863 430.628, 254.600 429.819, 253.500 429.414 C 251.572 428.706, 251.577 428.766, 253.628 431.090 M 249.087 434.750 L 251.336 438.500 247.998 435.500 L 244.659 432.500 246.943 435.814 C 248.297 437.778, 249.791 438.910, 250.613 438.595 C 251.376 438.302, 252 438.574, 252 439.198 C 252 439.822, 252.270 440.063, 252.601 439.732 C 253.369 438.965, 248.930 431, 247.734 431 C 247.241 431, 247.849 432.688, 249.087 434.750 M 361.128 432.150 C 356.011 433.622, 347 439.009, 347 440.595 C 347 441.368, 346.523 442, 345.941 442 C 345.359 442, 345.203 441.480, 345.595 440.845 C 346.041 440.124, 345.869 439.963, 345.138 440.415 C 344.494 440.813, 344.180 441.481, 344.439 441.901 C 344.698 442.320, 342.680 444.860, 339.955 447.544 C 334.189 453.223, 333.217 452.472, 338.750 446.614 L 342.500 442.643 338.500 445.733 C 336.300 447.433, 333.005 450.381, 331.177 452.285 L 327.854 455.746 332.177 459.208 C 334.555 461.112, 338.124 463.874, 340.110 465.347 L 343.719 468.023 345.411 463.594 C 348.734 454.892, 361.530 443.791, 371.435 441.018 L 375.720 439.818 371.006 435.409 C 365.921 430.653, 366.114 430.716, 361.128 432.150 M 219.500 437.999 C 215.650 440.175, 212.111 442.096, 211.636 442.266 C 211.161 442.436, 211.882 444.211, 213.238 446.209 C 215.983 450.255, 219.334 458.272, 220.997 464.774 C 222.261 469.718, 221.777 469.865, 231.849 461.500 C 238.925 455.624, 239.063 455.421, 238.512 451.667 C 237.485 444.664, 230.961 433.968, 227.750 434.021 C 227.063 434.032, 223.350 435.822, 219.500 437.999 M 107.994 437.934 C 101.606 439.877, 94.759 445.498, 90.857 452 C 85.698 460.597, 83.456 474.054, 85.044 486.895 C 86.170 496.003, 90.373 513.746, 94.496 526.797 C 96.705 533.792, 97.460 534.992, 101.461 537.864 C 107.933 542.513, 116.278 546.085, 121.183 546.307 L 125.437 546.500 127.832 540.529 C 134.482 523.952, 137.703 500.950, 135.955 482.509 C 133.699 458.693, 127.211 443.270, 117.616 438.913 C 113.174 436.896, 111.850 436.761, 107.994 437.934 M 129.878 441.699 C 131.655 443.910, 134.139 448.253, 135.398 451.350 C 136.656 454.447, 137.965 456.702, 138.306 456.361 C 138.646 456.020, 139.458 456.911, 140.109 458.339 C 140.760 459.768, 141.663 460.708, 142.116 460.428 C 142.569 460.148, 143.717 461.625, 144.667 463.710 C 147.208 469.284, 147.295 469.704, 145.459 467.500 C 143.812 465.523, 143.801 465.526, 144.464 467.750 C 145.730 471.996, 144.111 469.997, 141.410 463.979 C 139.924 460.668, 138.604 458.080, 138.477 458.229 C 138.350 458.378, 139.065 462.497, 140.065 467.383 C 144.871 490.851, 143.139 515.173, 134.986 538.703 C 132.225 546.670, 132.193 546.967, 134.202 545.892 C 138.506 543.589, 144.916 535.840, 146.896 530.547 C 150.498 520.921, 151.321 512.826, 150.713 493.029 C 149.902 466.685, 146.896 456.325, 136.937 445.563 C 134.869 443.328, 131.708 440.640, 129.912 439.589 L 126.648 437.679 129.878 441.699 M 227.566 443.750 C 230.291 449.916, 232.770 453.298, 231.505 449.125 C 230.996 447.443, 231.124 446.959, 231.944 447.466 C 232.659 447.907, 232.496 446.731, 231.519 444.392 C 228.857 438.019, 228.174 438.722, 230.443 445.500 C 230.811 446.600, 229.953 445.363, 228.537 442.750 C 225.008 436.240, 224.485 436.778, 227.566 443.750 M 343.347 446.460 C 340.681 448.913, 338.969 450.938, 339.542 450.960 C 340.115 450.982, 342.571 448.975, 345 446.500 C 350.687 440.705, 349.628 440.680, 343.347 446.460 M 370.976 444.320 C 364.064 447.164, 357.253 451.809, 353.161 456.469 C 350.074 459.986, 346 467.023, 346 468.840 C 346 469.346, 348.475 471.628, 351.500 473.912 C 354.525 476.196, 357 477.766, 357 477.400 C 357 477.035, 356.068 475.229, 354.930 473.386 C 352.405 469.301, 353.195 467.589, 357.232 468.396 C 360.156 468.981, 360.208 468.922, 359.599 465.676 C 359.257 463.850, 359.219 462.114, 359.516 461.818 C 359.812 461.521, 361.819 461.601, 363.974 461.995 L 367.894 462.712 365.866 458.737 C 364.751 456.551, 364.212 454.393, 364.669 453.941 C 365.126 453.489, 367.750 452.980, 370.500 452.810 C 375.038 452.529, 375.471 452.292, 375.187 450.250 C 374.829 447.674, 377.089 447.305, 382.944 448.984 L 386.374 449.968 382.484 445.984 C 380.345 443.793, 378.123 442.011, 377.547 442.024 C 376.971 442.037, 374.014 443.070, 370.976 444.320 M 197.628 449.123 C 188.148 453.943, 187.841 454.201, 189.892 455.637 C 194.292 458.719, 200 475.129, 200 484.699 L 200 489.079 209.481 480.789 C 218.707 472.723, 218.946 472.406, 218.354 469 C 216.995 461.190, 212.754 449.762, 210.190 447.001 L 207.500 444.104 197.628 449.123 M 206.930 450.869 C 207.480 451.896, 207.690 452.976, 207.398 453.269 C 206.650 454.017, 211.830 464, 212.966 464 C 213.478 464, 213.195 462.313, 212.336 460.250 C 210.044 454.745, 207.035 449, 206.444 449 C 206.161 449, 206.380 449.841, 206.930 450.869 M 174.813 460.862 L 166.126 465.600 169.323 468.151 C 175.965 473.451, 181 486.871, 181 499.274 L 181 506.128 188.537 499.314 C 192.683 495.566, 196.350 491.416, 196.686 490.090 C 197.502 486.872, 195.379 473.415, 192.934 466.309 C 190.816 460.152, 187.603 455.963, 185.076 456.062 C 184.209 456.096, 179.591 458.256, 174.813 460.862 M 187.441 465.500 C 187.671 467.150, 188.145 469.400, 188.494 470.500 C 188.842 471.600, 188.409 471.262, 187.532 469.750 C 184.544 464.601, 185.012 466.979, 188.261 473.460 C 192.282 481.479, 192.896 479.800, 189.548 469.940 C 188.158 465.848, 187.210 463.850, 187.441 465.500 M 159.222 468.758 C 155.995 470.364, 155.952 470.474, 156.454 475.945 C 156.733 479, 157.237 485.879, 157.573 491.232 C 158.018 498.320, 158.665 501.580, 159.955 503.232 C 162.697 506.745, 166 513.699, 166 515.960 C 166 518.890, 166.904 518.551, 172.767 513.422 L 178 508.845 178 501.481 C 178 496.938, 177.552 493.841, 176.830 493.395 C 176.043 492.909, 175.869 493.217, 176.299 494.336 C 177.513 497.499, 176.033 495.985, 173.983 491.966 C 172.851 489.747, 172.236 487.427, 172.617 486.811 C 173.027 486.148, 172.859 485.969, 172.205 486.373 C 171.035 487.097, 168.429 483.238, 169.419 482.248 C 169.739 481.928, 170 482.218, 170 482.892 C 170 483.566, 170.426 483.855, 170.946 483.533 C 171.467 483.211, 173.079 484.647, 174.530 486.724 L 177.167 490.500 176.517 487 C 175.528 481.673, 170.232 471.327, 167.321 469.038 C 164.264 466.633, 163.544 466.608, 159.222 468.758 M 493.618 484.869 C 491.463 487.251, 484.010 508.495, 484.004 512.275 C 483.997 517.108, 485.296 516.951, 424 519.523 C 404.475 520.342, 385.199 521.277, 381.165 521.600 C 374.050 522.169, 373.848 522.258, 374.427 524.567 C 374.934 526.585, 374.415 527.258, 371.012 528.994 C 366.690 531.199, 366.016 533.256, 368.661 536.177 C 369.574 537.187, 370.136 538.178, 369.911 538.380 C 369.685 538.582, 365.675 539.817, 361 541.124 C 352.904 543.387, 352.486 543.643, 352.206 546.500 C 352.044 548.150, 352.544 550.364, 353.317 551.420 C 354.680 553.283, 354.970 553.291, 363.031 551.674 C 367.601 550.757, 371.578 550.244, 371.868 550.534 C 372.158 550.824, 371.579 552.443, 370.582 554.131 C 369.053 556.718, 368.966 557.569, 370.027 559.551 C 371.577 562.446, 375.099 562.786, 393.500 561.813 C 400.650 561.434, 426.750 560.179, 451.500 559.023 C 476.250 557.867, 498.686 556.432, 501.358 555.835 C 506.731 554.634, 513 549.856, 513 546.964 C 513 545.958, 514.568 539.636, 516.484 532.914 C 521.099 516.728, 525.135 496.937, 525.337 489.500 L 525.500 483.500 510.428 483.225 C 496.637 482.973, 495.208 483.113, 493.618 484.869 M 499.850 486.657 C 496.583 487.061, 495.979 487.620, 494.103 491.981 C 492.951 494.661, 490.866 500.391, 489.472 504.715 C 488.077 509.038, 485.973 514.134, 484.796 516.038 C 482.927 519.061, 482.633 521.148, 482.477 532.500 C 482.347 542.070, 481.861 546.530, 480.637 549.404 C 479.722 551.550, 479.092 553.420, 479.237 553.558 C 480.090 554.371, 501.101 552.005, 504.050 550.763 C 507.413 549.348, 507.767 548.723, 510.771 538.885 C 516.657 519.609, 523.269 488.936, 521.846 487.513 C 521.113 486.780, 504.181 486.121, 499.850 486.657 M 511.658 494.500 C 511.203 497.250, 509.971 504.675, 508.922 511 C 507.873 517.325, 505.886 526.695, 504.507 531.822 C 501.847 541.712, 501.444 545, 502.891 545 C 506.429 545, 513.483 510.122, 512.801 496 L 512.487 489.500 511.658 494.500 M 268.865 501.600 C 264.264 505.781, 257.800 511.241, 254.500 513.735 C 251.200 516.228, 247.713 519.158, 246.750 520.245 C 243.324 524.114, 245.183 528.267, 251.279 530.363 L 255.031 531.653 249.916 537.499 C 242.100 546.431, 239.663 550.522, 240.404 553.473 C 240.917 555.518, 241.654 556.003, 244.269 556.017 C 247.105 556.032, 248.929 554.540, 259.188 543.809 C 265.616 537.085, 271.061 530.874, 271.288 530.005 C 271.995 527.302, 270.180 524.036, 267.279 522.789 C 265.751 522.132, 264.326 521.475, 264.114 521.328 C 263.902 521.181, 266.284 518.301, 269.407 514.927 C 276.635 507.120, 282 499.169, 282 496.263 C 282 491.805, 277.743 493.534, 268.865 501.600 M 156.705 511.281 C 156.382 515.802, 155.197 522.425, 154.071 526 C 152.946 529.575, 152.020 532.711, 152.013 532.969 C 152.006 533.226, 154.702 530.764, 158.004 527.496 C 163.630 521.928, 163.967 521.334, 163.370 518.028 C 162.571 513.608, 159.135 504.201, 158.082 503.550 C 157.648 503.282, 157.028 506.761, 156.705 511.281 M 158.306 519 C 159.553 522.303, 160.489 522.773, 161.351 520.529 C 161.909 519.075, 159.644 516, 158.015 516 C 157.552 516, 157.683 517.350, 158.306 519 M 477.656 520.750 C 477.402 521.163, 476.867 523.750, 476.466 526.500 C 475.324 534.339, 472.348 543.065, 469.036 548.285 C 467.366 550.916, 466 553.279, 466 553.535 C 466 553.791, 467.976 554, 470.391 554 C 474.600 554, 474.851 553.829, 476.425 549.896 C 477.350 547.584, 478.288 541.578, 478.574 536.146 C 478.852 530.841, 479.259 525.038, 479.477 523.250 C 479.838 520.299, 478.806 518.882, 477.656 520.750 M 461.250 521.740 C 455.143 522.087, 455 522.160, 455 524.919 C 455 528.949, 450.365 546.684, 448.134 551.195 L 446.251 555 453.575 555 C 460.670 555, 460.974 554.899, 463.337 551.750 C 468.523 544.840, 471.341 537.728, 474.430 523.750 C 475.109 520.679, 476.420 520.879, 461.250 521.740 M 442.879 522.739 L 436.258 523.086 435.781 530.293 C 435.381 536.349, 434.560 538.977, 430.643 546.750 L 425.980 556 433.740 555.988 C 441.471 555.975, 441.508 555.962, 443.715 552.555 C 445.971 549.071, 448.376 542.226, 451.902 529.250 L 453.873 522 451.686 522.196 C 450.484 522.304, 446.520 522.548, 442.879 522.739 M 422 523.739 L 414.500 524.076 414.251 529.777 C 413.948 536.746, 411.702 544.746, 408.168 551.457 C 406.707 554.231, 405.395 556.725, 405.253 557 C 404.821 557.836, 420.440 556.908, 421.330 556.045 C 421.787 555.602, 421.449 553.145, 420.580 550.585 C 417.834 542.495, 418.992 541.644, 422.284 549.333 L 424.068 553.500 423.619 550 C 423.372 548.075, 422.830 545.639, 422.415 544.586 C 421.910 543.305, 422.022 542.896, 422.753 543.347 C 423.354 543.719, 424.163 545.466, 424.550 547.229 L 425.254 550.435 428.489 543.968 C 430.268 540.410, 432.275 535.025, 432.949 532 C 433.623 528.975, 434.391 525.712, 434.655 524.750 C 435.038 523.355, 434.564 523.041, 432.317 523.201 C 430.768 523.312, 426.125 523.554, 422 523.739 M 400.750 524.742 L 394 525.091 394 530.836 C 394 537.916, 391.697 547.059, 388.449 552.870 C 387.102 555.280, 386 557.420, 386 557.626 C 386 557.832, 388.885 558, 392.411 558 C 398.368 558, 399.009 557.778, 401.459 554.866 C 406.086 549.367, 410.544 538.112, 412.396 527.250 C 412.914 524.211, 412.773 524.013, 410.225 524.196 C 408.726 524.304, 404.462 524.549, 400.750 524.742 M 383.174 525.854 L 380.848 526.508 383.424 528.928 C 386.495 531.814, 386.569 532.716, 384 536 C 382.924 537.375, 382.041 539.175, 382.038 540 C 382.032 541.212, 382.194 541.242, 382.883 540.155 C 383.504 539.176, 383.920 539.584, 384.415 541.655 C 384.789 543.220, 385.347 545.344, 385.655 546.375 C 386.018 547.592, 385.825 548.010, 385.107 547.566 C 384.498 547.190, 384 547.332, 384 547.882 C 384 548.432, 384.387 549.121, 384.860 549.414 C 386.120 550.192, 388.821 543.527, 390.501 535.500 C 392.627 525.337, 392.567 524.983, 388.750 525.100 C 386.962 525.155, 384.453 525.494, 383.174 525.854 M 373.849 531.043 C 371.505 532.794, 371.331 533.309, 372.349 535.503 C 373.836 538.709, 376.983 538.712, 379.990 535.510 C 382.261 533.093, 382.276 532.962, 380.509 531.010 C 378.261 528.525, 377.214 528.530, 373.849 531.043 M 366 543.535 C 362.425 544.820, 358.712 545.900, 357.750 545.936 C 356.788 545.971, 356 546.724, 356 547.608 C 356 548.760, 356.639 549.073, 358.250 548.710 C 359.488 548.431, 363.425 547.647, 367 546.968 C 372.821 545.862, 373.500 545.485, 373.500 543.366 C 373.500 542.065, 373.275 541.045, 373 541.099 C 372.725 541.154, 369.575 542.250, 366 543.535 M 438.022 541.639 C 438.010 542.266, 438.885 543.841, 439.967 545.139 C 442.526 548.211, 442.556 546.268, 440 543 C 438.924 541.625, 438.034 541.013, 438.022 541.639 M 459.442 543.500 C 459.827 545.150, 460.618 546.950, 461.200 547.500 C 461.939 548.198, 462.047 547.594, 461.558 545.500 C 461.173 543.850, 460.382 542.050, 459.800 541.500 C 459.061 540.802, 458.953 541.406, 459.442 543.500 M 462.184 543.504 C 462.811 544.882, 463.518 545.815, 463.754 545.580 C 464.460 544.873, 462.938 541, 461.954 541 C 461.453 541, 461.556 542.127, 462.184 543.504 M 398.076 543 C 398.084 543.825, 398.726 545.850, 399.504 547.500 L 400.918 550.500 400.324 547.500 C 399.581 543.744, 398.053 540.687, 398.076 543 M 435.044 542.628 C 434.967 544.606, 438.269 551.548, 438.703 550.320 C 438.932 549.671, 438.213 547.421, 437.104 545.320 C 435.995 543.219, 435.069 542.008, 435.044 542.628 M 456.605 544.750 C 456.959 546.263, 457.931 548.175, 458.766 549 C 460.118 550.336, 460.213 550.298, 459.638 548.657 C 459.282 547.644, 458.720 545.731, 458.387 544.407 C 458.055 543.083, 457.373 542, 456.873 542 C 456.372 542, 456.251 543.237, 456.605 544.750 M 393 543.357 C 393 544.166, 394.906 552.618, 395.586 554.824 C 395.910 555.876, 396.310 555.833, 397.526 554.617 C 398.895 553.248, 398.898 552.526, 397.555 547.793 L 396.052 542.500 396.501 547 C 396.948 551.481, 396.945 551.485, 395.896 548 C 394.913 544.730, 393 541.664, 393 543.357 M 373.986 551.250 C 373.979 552.487, 373.678 554.602, 373.318 555.948 C 372.694 558.282, 372.854 558.236, 376.756 554.959 C 381.156 551.266, 381.012 549, 376.378 549 C 374.583 549, 373.997 549.551, 373.986 551.250" stroke="none" fill="#040404" fill-rule="evenodd"/></svg>