<?xml version="1.0" standalone="no"?>
<!DOCTYPE svg PUBLIC "-//W3C//DTD SVG 20010904//EN"
 "http://www.w3.org/TR/2001/REC-SVG-20010904/DTD/svg10.dtd">
<svg version="1.0" xmlns="http://www.w3.org/2000/svg"
 width="300.000000pt" height="300.000000pt" viewBox="0 0 300.000000 300.000000"
 preserveAspectRatio="xMidYMid meet">
<metadata>
Created by potrace 1.10, written by Peter Selinger 2001-2011
</metadata>
<g transform="translate(0.000000,300.000000) scale(0.100000,-0.100000)"
fill="#000000" stroke="none">
<path d="M2102 2793 c-16 -21 -38 -55 -49 -75 -22 -41 -33 -40 -33 4 0 17 -6
31 -16 35 -20 8 -78 -48 -114 -110 l-28 -48 -22 35 c-22 37 -40 47 -40 23 0
-8 11 -40 24 -73 29 -70 56 -83 76 -35 7 17 26 52 42 78 l30 48 12 -35 c7 -24
18 -36 33 -38 18 -3 31 10 66 65 60 93 79 132 73 149 -9 22 -22 17 -54 -23z"/>
<path d="M1315 2755 c-71 -18 -175 -48 -230 -65 -55 -17 -122 -36 -150 -40
-27 -5 -93 -31 -145 -57 -152 -77 -165 -115 -110 -327 57 -222 148 -415 239
-506 52 -52 56 -83 13 -106 -15 -9 -63 -35 -107 -60 -70 -39 -84 -44 -121 -38
-35 5 -46 2 -63 -15 l-22 -22 -37 30 c-20 16 -57 50 -81 75 l-45 46 22 39 c26
46 27 62 7 100 -15 30 -86 71 -123 71 -25 0 -92 -55 -92 -76 0 -7 18 -18 41
-24 36 -10 40 -14 37 -38 -2 -21 -14 -33 -57 -54 -90 -46 -122 -35 -150 52
-10 30 -23 56 -28 57 -18 6 -81 -56 -93 -91 -15 -45 -2 -74 55 -124 57 -50 90
-59 141 -37 89 38 77 42 151 -47 71 -85 226 -228 248 -228 8 0 27 12 44 26 29
24 32 24 53 10 31 -22 44 -21 157 18 l99 34 7 -71 c21 -224 73 -339 183 -405
l34 -20 -57 -26 c-31 -14 -124 -62 -206 -106 -82 -44 -151 -80 -152 -80 -2 0
-9 18 -16 40 -14 46 -52 95 -90 114 -43 22 -118 27 -154 12 -115 -49 -150
-196 -92 -391 42 -144 56 -169 108 -194 39 -19 53 -21 95 -13 41 7 65 22 153
98 215 185 318 272 450 383 l137 113 76 0 77 0 30 -46 c35 -52 101 -114 206
-193 68 -52 93 -59 93 -29 0 8 12 22 27 31 50 33 93 88 93 119 0 24 -17 47
-92 121 l-93 92 41 40 c37 36 44 50 62 129 11 49 29 137 39 196 l17 108 44 0
c62 0 159 -36 220 -81 28 -22 52 -44 52 -50 0 -5 12 -7 28 -3 52 11 54 12 43
32 -7 13 -6 23 2 32 9 10 9 11 -2 5 -14 -8 -31 10 -31 32 0 9 10 11 32 6 27
-5 30 -4 24 12 -5 14 -3 15 6 8 7 -6 29 -9 48 -7 24 2 29 0 16 -5 -16 -6 -17
-9 -5 -17 36 -23 59 -32 59 -23 0 5 -7 12 -16 16 -8 3 -13 12 -10 20 3 8 -2
16 -12 19 -9 3 -25 10 -36 15 -13 7 -16 7 -11 0 11 -18 -21 -12 -46 8 l-24 20
25 -3 c14 -2 42 -7 63 -11 28 -6 37 -4 36 6 -1 8 -53 62 -116 121 -131 123
-207 168 -289 169 l-51 2 -9 51 c-11 62 -26 71 -140 87 -83 12 -188 7 -329
-15 -34 -5 -36 -5 -16 4 14 6 32 12 40 14 30 5 135 57 168 82 59 45 76 155 52
349 -39 319 -154 518 -298 515 -9 -1 -74 -16 -146 -35z m232 -23 c77 -42 147
-224 179 -467 25 -184 10 -275 -52 -324 -57 -45 -369 -151 -548 -187 -105 -20
-145 -14 -189 31 -93 96 -212 381 -250 598 -9 57 -9 73 3 95 29 52 259 144
578 233 177 48 221 52 279 21z m-1137 -892 c22 -11 47 -32 56 -45 16 -24 16
-28 -1 -64 -14 -33 -23 -40 -54 -45 -46 -7 -102 -43 -116 -74 -5 -12 -15 -22
-21 -22 -7 0 -30 -8 -53 -19 -55 -24 -81 -17 -136 33 -54 51 -59 87 -19 135
14 17 29 31 33 31 3 0 14 -23 24 -50 22 -63 52 -84 110 -78 53 6 124 50 138
85 13 34 -12 73 -46 73 -33 0 -32 13 3 39 34 25 34 25 82 1z m1495 -44 c35
-10 41 -16 45 -46 15 -106 -79 -677 -125 -756 -28 -48 -85 -81 -204 -118 -111
-35 -179 -41 -271 -23 -211 42 -289 116 -324 309 -26 140 -50 431 -40 489 9
53 10 54 44 57 19 1 105 16 190 32 310 60 372 68 510 68 76 0 152 -5 175 -12z
m149 -122 c9 -3 16 -15 16 -26 0 -27 -38 -113 -77 -175 -39 -63 -27 -72 15
-10 28 40 82 164 82 186 0 15 16 14 53 -5 67 -34 69 -40 40 -98 -14 -28 -38
-67 -53 -86 -39 -51 -44 -61 -26 -54 22 9 81 91 102 143 l17 43 39 -40 40 -39
-25 -39 c-14 -22 -43 -56 -65 -77 l-40 -39 -47 21 c-26 11 -76 24 -112 27 -59
6 -64 9 -59 28 2 12 9 57 15 101 21 149 20 145 46 145 13 0 30 -3 39 -6z
m-1616 -22 c2 -7 -4 -12 -13 -12 -9 0 -33 -16 -52 -35 -31 -31 -37 -33 -54
-22 -18 13 -17 15 10 41 41 40 100 55 109 28z m134 -134 c26 -23 26 -24 20
-110 l-7 -87 -57 50 c-32 28 -58 58 -58 67 0 9 11 42 25 72 l25 55 -24 -28
c-14 -15 -28 -43 -32 -62 -3 -19 -9 -35 -13 -35 -9 0 -64 59 -86 93 -17 27
-17 28 1 49 11 11 32 29 48 39 l30 18 50 -49 c28 -26 63 -59 78 -72z m381 8
c5 -96 4 -106 -8 -90 -15 19 -55 135 -55 158 0 9 52 49 56 43 1 -1 4 -51 7
-111z m-73 44 c0 -32 40 -128 66 -159 l24 -29 -57 -17 c-54 -16 -58 -16 -71 2
-21 27 -49 94 -56 133 -5 33 -3 37 37 62 52 32 57 33 57 8z m-197 -104 c-3
-35 -1 -78 5 -95 10 -27 9 -31 -7 -31 -10 0 -26 -9 -36 -20 -10 -11 -22 -20
-27 -20 -4 0 -8 43 -8 95 0 77 3 95 15 95 8 0 19 9 25 20 6 11 17 20 24 20 11
0 13 -14 9 -64z m96 1 c6 -28 23 -66 38 -85 21 -28 23 -36 12 -43 -24 -15 -82
-22 -98 -12 -21 13 -45 114 -37 157 6 31 10 34 40 34 32 0 34 -2 45 -51z
m1610 -24 c2 -2 2 -5 0 -8 -3 -2 -22 0 -43 6 -21 6 -45 8 -53 4 -14 -5 -13 -9
6 -28 29 -32 27 -40 -9 -32 -36 8 -38 -1 -10 -55 11 -22 20 -42 20 -45 0 -12
-38 -4 -50 10 -11 13 -10 18 6 31 18 14 18 15 -3 4 -18 -8 -28 -7 -48 6 l-25
16 48 43 c26 24 57 59 67 79 l19 36 36 -33 c19 -17 37 -33 39 -34z m-597 -576
l26 -23 -48 -22 c-26 -12 -70 -42 -98 -67 l-49 -44 -22 22 c-11 13 -21 28 -21
35 0 17 86 85 133 104 53 21 48 22 79 -5z m-553 -30 c6 -8 7 -18 3 -22 -4 -5
-2 -5 5 -1 7 4 17 -3 24 -15 10 -20 8 -26 -22 -50 -35 -29 -49 -29 -49 -1 0
20 -27 62 -39 62 -5 0 2 -21 15 -47 l24 -47 -27 -29 c-50 -52 -59 -52 -77 0
-9 25 -23 54 -32 64 -15 17 -11 20 63 58 88 44 96 47 112 28z m367 -23 c-30
-29 -40 -34 -51 -24 -8 7 -15 16 -15 21 0 6 50 25 99 38 2 1 -13 -15 -33 -35z
m-277 10 c5 -5 -20 -34 -29 -34 -4 0 -15 11 -24 25 l-16 25 32 -7 c18 -3 35
-7 37 -9z m530 -18 l23 -24 -29 -6 c-39 -9 -99 -60 -121 -102 l-17 -33 -38 32
-38 32 32 30 c18 17 27 21 19 10 -14 -19 -14 -19 4 -5 11 8 21 14 23 12 3 -2
8 0 11 4 4 4 1 4 -5 0 -7 -4 -13 -3 -13 3 0 11 97 71 116 71 6 0 21 -11 33
-24z m-1244 -40 c71 -75 88 -284 37 -451 -16 -54 -21 -60 -47 -63 -20 -2 -46
7 -76 26 -44 28 -46 33 -72 123 -52 182 -44 290 25 355 57 54 89 57 133 10z
m71 -8 c36 -39 54 -84 65 -165 21 -145 -4 -277 -60 -327 -11 -11 -23 -17 -25
-15 -3 3 5 31 16 64 18 49 22 84 22 190 1 139 -14 208 -56 268 -20 27 -20 29
-2 19 10 -6 29 -21 40 -34z m1229 -4 c33 -21 32 -37 -1 -22 -22 10 -27 9 -35
-4 -5 -9 -17 -14 -28 -11 -21 5 -37 -12 -21 -22 18 -11 10 -27 -11 -22 -17 5
-20 2 -16 -14 4 -14 0 -19 -14 -19 -23 0 -24 -4 -1 -38 l17 -27 -32 23 c-44
31 -46 37 -29 69 17 34 50 65 91 86 38 21 50 21 80 1z m-852 -26 c8 -18 20
-50 25 -70 10 -36 9 -37 -37 -76 l-47 -40 -11 61 c-7 33 -21 73 -32 87 l-19
27 41 21 c56 28 62 27 80 -10z m-104 -63 c8 -16 16 -57 18 -90 3 -58 2 -61
-35 -92 l-38 -31 0 53 c-1 55 -36 134 -63 143 -10 3 -8 -4 6 -24 24 -35 45
-94 34 -94 -5 0 -11 9 -14 20 -3 11 -10 20 -16 20 -5 0 -3 -13 7 -29 9 -16 20
-27 24 -25 5 3 8 -14 7 -38 0 -35 -5 -47 -28 -65 l-29 -23 -7 28 c-3 15 -13
34 -20 42 -7 8 -16 51 -19 95 l-6 80 62 31 c77 38 98 38 117 -1z m961 13 c0
-12 -78 -88 -92 -88 -17 0 -7 21 28 60 35 39 64 52 64 28z m-1109 -259 c12
-39 12 -41 -21 -72 -24 -24 -31 -27 -25 -12 4 11 10 44 13 73 2 28 8 52 13 52
4 0 14 -18 20 -41z"/>
<path d="M1437 2599 c-91 -21 -161 -79 -173 -145 -27 -143 117 -255 254 -198
117 49 151 159 82 268 -26 40 -92 88 -117 85 -4 -1 -25 -5 -46 -10z m109 -74
c45 -48 59 -103 40 -150 -8 -19 -12 -35 -9 -35 15 0 -35 -44 -64 -56 -103 -44
-223 30 -223 136 0 36 20 80 47 101 17 13 17 13 0 -13 -21 -34 -22 -109 -2
-148 34 -66 111 -89 189 -56 36 15 65 46 30 32 -45 -18 -121 -19 -147 -1 -38
24 -61 91 -50 146 7 36 14 47 43 61 19 10 52 18 74 18 31 0 45 -7 72 -35z"/>
<path d="M952 2424 c-169 -84 -155 -307 21 -339 55 -11 120 11 172 57 108 95
105 197 -8 273 -64 44 -111 46 -185 9z m166 -44 c48 -35 62 -57 62 -101 0 -45
-34 -95 -85 -125 -49 -28 -61 -26 -107 23 -47 49 -60 115 -37 181 20 57 103
69 167 22z m-204 -35 c-33 -80 0 -174 76 -212 39 -20 41 -23 18 -23 -126 0
-188 141 -107 244 27 35 31 33 13 -9z"/>
<path d="M1587 2203 c-3 -5 -2 -29 3 -55 4 -30 3 -48 -3 -48 -5 0 -30 16 -53
36 -24 19 -48 32 -54 29 -5 -3 -10 -24 -10 -46 l0 -40 -35 27 c-50 38 -65 27
-65 -43 l0 -57 -49 48 c-27 27 -54 46 -59 42 -5 -3 -13 -39 -17 -78 -4 -40 -9
-77 -12 -81 -3 -4 -29 15 -58 42 -30 28 -58 51 -64 51 -5 0 -15 -27 -22 -59
-8 -41 -17 -61 -28 -64 -10 -2 -2 -11 26 -25 47 -24 63 -27 63 -11 0 5 -14 15
-31 21 -22 8 -29 15 -24 27 4 9 9 28 12 44 3 15 8 27 11 27 4 0 32 -25 63 -56
31 -31 61 -54 67 -50 5 3 15 40 21 81 l13 77 21 -18 c12 -10 34 -29 49 -42 14
-13 31 -21 37 -18 6 4 11 34 11 67 l0 60 37 -26 c52 -35 63 -33 63 15 l0 40
50 -36 c62 -44 75 -41 71 16 -2 39 -1 43 13 31 9 -8 16 -20 16 -27 0 -11 19
-22 20 -11 10 62 10 77 2 77 -6 0 -12 -5 -14 -12 -2 -6 -14 3 -27 20 -22 32
-36 39 -44 25z"/>
<path d="M1621 1550 c-93 -13 -94 -14 -86 -56 3 -20 6 -68 6 -106 0 -119 19
-136 138 -124 91 8 139 23 151 47 6 10 14 63 17 117 5 81 3 99 -10 110 -20 17
-135 23 -216 12z m203 -107 c-11 -117 -14 -126 -60 -140 -21 -6 -72 -12 -111
-12 -85 -1 -80 -9 -86 137 l-3 92 133 0 134 0 -7 -77z"/>
<path d="M1654 1491 c-50 -22 -71 -102 -39 -149 20 -27 71 -41 110 -30 94 26
83 171 -15 183 -19 3 -45 1 -56 -4z m101 -51 c-3 -5 -34 -10 -68 -10 -44 0
-58 3 -47 10 20 13 123 13 115 0z m0 -40 c4 -6 -16 -10 -54 -10 -33 0 -63 5
-66 10 -4 6 16 10 54 10 33 0 63 -4 66 -10z m-5 -35 c-8 -10 -31 -15 -67 -15
-48 0 -54 2 -43 15 8 10 31 15 67 15 48 0 54 -2 43 -15z"/>
<path d="M1046 1200 c4 -19 12 -46 20 -60 18 -35 17 -24 -6 40 -14 38 -18 44
-14 20z"/>
<path d="M1074 1197 c-8 -21 15 -72 27 -60 12 12 1 45 -13 37 -6 -4 -8 2 -3
15 7 23 -2 30 -11 8z"/>
<path d="M431 1553 c-1 -38 10 -56 22 -35 11 20 17 63 7 57 -5 -3 -11 -18 -11
-33 -1 -20 -4 -17 -9 13 l-7 40 -2 -42z"/>
<path d="M530 1479 c0 -5 4 -8 8 -5 5 3 6 -8 4 -25 -3 -17 0 -29 7 -29 6 0 11
16 11 35 0 24 -5 35 -15 35 -8 0 -15 -5 -15 -11z"/>
<path d="M653 1461 c-6 -10 -9 -28 -6 -40 9 -35 21 -24 19 19 0 22 -1 40 -1
40 0 0 -5 -8 -12 -19z"/>
<path d="M359 2429 c-72 -9 -125 -26 -116 -36 4 -3 41 0 83 6 41 7 77 11 78 9
2 -1 -4 -45 -12 -96 -17 -106 -13 -118 43 -114 20 2 51 -5 70 -13 44 -22 79
-16 83 12 3 18 -6 26 -42 42 -25 12 -59 21 -75 21 -31 0 -31 0 -25 48 3 26 7
59 9 74 5 33 -3 58 -19 57 -6 -1 -41 -5 -77 -10z"/>
<path d="M2615 2158 c-16 -12 -51 -39 -76 -60 -26 -21 -49 -38 -52 -38 -3 0
-7 24 -9 53 -3 45 -6 52 -26 55 -41 6 -212 -122 -212 -158 0 -29 18 -25 98 25
58 36 72 42 72 27 0 -9 9 -36 20 -59 24 -53 45 -55 83 -8 16 20 62 61 103 92
49 37 73 61 69 70 -3 8 -5 17 -5 19 0 12 -39 1 -65 -18z"/>
<path d="M2744 1412 c-18 -15 -37 -37 -43 -49 -18 -36 5 -36 33 -1 14 18 27
30 29 28 2 -3 13 -39 23 -80 25 -92 41 -99 78 -35 31 52 46 57 46 15 0 -37 36
-134 56 -151 30 -25 34 5 9 66 -13 33 -25 71 -25 85 0 33 -26 70 -50 70 -10 0
-30 -14 -45 -31 -14 -17 -27 -30 -29 -28 -1 2 -9 33 -17 68 -8 35 -19 66 -24
67 -6 2 -24 -9 -41 -24z"/>
<path d="M2380 1354 c0 -3 9 -17 20 -31 26 -33 25 -41 -4 -39 -13 0 -22 4 -20
7 6 11 -22 18 -35 9 -10 -5 -8 -11 8 -22 11 -8 27 -30 35 -49 11 -25 15 -28
16 -13 0 11 -5 25 -11 31 -7 7 -6 12 6 17 9 3 13 2 10 -4 -3 -6 -2 -10 4 -10
23 0 23 49 1 80 -21 29 -30 37 -30 24z"/>
<path d="M396 1129 c-10 -15 -13 -36 -9 -68 l5 -46 -47 3 c-87 7 -180 -48
-143 -84 12 -13 21 -12 62 7 51 22 86 22 144 -2 45 -19 54 -3 46 81 l-6 66 87
-9 c62 -7 90 -6 98 2 19 19 -13 40 -88 56 -98 21 -131 19 -149 -6z"/>
<path d="M2076 1112 c-5 -8 17 -130 29 -159 8 -23 52 -15 58 9 6 20 9 18 38
-26 47 -71 107 -91 83 -28 -6 15 -28 53 -48 85 -34 54 -41 59 -68 55 -26 -4
-32 0 -49 34 -19 37 -33 47 -43 30z"/>
<path d="M2456 538 c-8 -18 -20 -53 -27 -78 -7 -25 -15 -49 -19 -53 -4 -4
-108 -12 -231 -18 -268 -11 -309 -16 -309 -34 0 -7 -9 -17 -20 -20 -22 -7 -26
-20 -10 -30 18 -11 2 -22 -40 -29 -35 -6 -41 -10 -38 -29 3 -20 8 -22 51 -19
46 3 57 -4 37 -24 -8 -8 -6 -15 4 -23 11 -9 84 -8 331 4 174 9 327 20 340 25
13 5 28 17 33 27 13 26 60 218 68 281 l7 52 -82 0 -82 0 -13 -32z m154 -5 c0
-30 -47 -227 -63 -266 -16 -38 -23 -41 -110 -51 -45 -5 -47 -4 -37 13 5 11 10
51 10 90 0 38 4 72 9 76 5 3 19 36 32 73 12 37 24 70 26 75 2 4 33 7 69 7 54
0 64 -3 64 -17z m-243 -190 c-4 -20 -17 -58 -30 -83 -21 -42 -26 -45 -66 -48
l-42 -3 14 28 c8 15 20 50 26 78 14 57 23 65 70 65 33 0 34 0 28 -37z m28 -30
c-8 -80 -19 -103 -45 -103 -24 0 -25 -5 5 54 14 27 25 64 25 83 0 18 5 33 11
33 8 0 9 -20 4 -67z m-230 20 c-7 -39 -41 -113 -51 -113 -4 0 -4 9 -1 20 3 11
1 18 -3 15 -5 -3 -10 -2 -13 2 -5 10 -2 -5 7 -34 7 -21 4 -23 -33 -23 -23 0
-41 1 -41 3 0 2 9 22 20 45 11 22 20 57 20 76 0 37 8 43 69 45 33 1 33 1 26
-36z m95 10 c-5 -16 -14 -47 -20 -70 -14 -54 -33 -73 -76 -73 -19 0 -34 1 -34
3 0 1 11 24 25 51 14 27 25 64 25 83 0 32 1 33 44 33 45 0 45 0 36 -27z m-305
-25 c-11 -61 -23 -90 -36 -82 -6 3 -9 15 -6 25 3 11 1 17 -4 13 -15 -9 -10 8
8 28 15 17 15 19 -2 38 -18 20 -17 20 14 20 l33 0 -7 -42z m101 5 c-4 -21 -17
-58 -30 -83 l-22 -45 -57 -1 c-34 -1 -55 2 -51 8 3 5 13 7 21 4 19 -8 52 66
53 117 l0 37 46 0 46 0 -6 -37z m-151 7 c7 -12 -12 -40 -27 -40 -16 0 -21 32
-7 41 18 12 26 11 34 -1z m-35 -64 c0 -7 -14 -16 -31 -20 -68 -13 -77 -2 -16
20 44 16 47 16 47 0z m33 -33 c3 -5 -7 -17 -21 -27 -23 -18 -25 -18 -19 -2 4
10 7 22 7 27 0 11 27 12 33 2z"/>
<path d="M2556 514 c-3 -9 -6 -28 -6 -42 0 -15 -7 -58 -16 -97 -27 -120 -27
-121 -16 -110 13 13 39 123 47 203 7 60 3 78 -9 46z"/>
<path d="M1310 444 c-82 -70 -97 -99 -56 -110 l25 -6 -40 -49 c-40 -46 -47
-79 -18 -79 16 0 139 132 136 145 -2 6 -13 15 -25 21 l-22 11 21 19 c26 23 79
94 79 106 0 19 -30 3 -100 -58z"/>
</g>
</svg>
