<svg xmlns="http://www.w3.org/2000/svg" width="1500" height="500" viewBox="0 0 1500 500" version="1.1"><path d="M 610 73 L 610 76 617 76 L 624 76 624 82.500 L 624 89 653.500 89 L 683 89 683 100.500 L 683 112 690 112 L 697 112 697 100.500 L 697 89 690.500 89 L 684 89 684 82.500 L 684 76 654 76 L 624 76 624 73.625 C 624 71.011, 621.176 70, 613.875 70 C 610.236 70, 610 70.183, 610 73 M 975.708 70.626 C 975.318 71.015, 975 112.208, 975 162.167 L 975 253 985 253 L 995 253 995 246.500 C 995 240.237, 994.909 240, 992.506 240 L 990.011 240 989.756 155.250 L 989.500 70.500 982.958 70.209 C 979.359 70.049, 976.097 70.237, 975.708 70.626 M 592 171 L 592 253 638 253 L 684 253 684 246.500 L 684 240 645 240 L 606 240 606 164.500 L 606 89 599 89 L 592 89 592 171 M 738 180 L 738 253 747.500 253 L 757 253 757 246.500 C 757 240.233, 756.910 240, 754.500 240 L 752 240 752 173.500 L 752 107 745 107 L 738 107 738 180 M 775 109.454 C 775 111.788, 775.330 111.923, 781.750 112.204 L 788.500 112.500 788.796 119.250 L 789.091 126 800.546 126 L 812 126 812 119.500 L 812 113 800.500 113 L 789 113 789 110 L 789 107 782 107 C 775.235 107, 775 107.082, 775 109.454 M 866 109.500 C 866 111.929, 866.200 112, 873 112 C 879.800 112, 880 111.929, 880 109.500 C 880 107.071, 879.800 107, 873 107 C 866.200 107, 866 107.071, 866 109.500 M 1048.346 115.250 C 1048.699 119.787, 1048.991 125.188, 1048.994 127.250 L 1049 131 1056 131 L 1063 131 1063 137.500 C 1063 143.333, 1063.205 144, 1065 144 C 1066.795 144, 1067 143.333, 1067 137.500 C 1067 131.667, 1066.795 131, 1065 131 C 1063.111 131, 1063 130.333, 1063 119 L 1063 107 1055.352 107 L 1047.704 107 1048.346 115.250 M 1122 109.454 C 1122 111.788, 1122.330 111.923, 1128.750 112.204 L 1135.500 112.500 1135.794 118.602 L 1136.088 124.704 1145.794 125.347 C 1151.132 125.700, 1160.046 125.992, 1165.603 125.995 L 1175.707 126 1176.353 133.651 C 1176.709 137.859, 1177 143.034, 1177 145.151 L 1177 149 1184.032 149 L 1191.063 149 1190.782 137.250 L 1190.500 125.500 1183.750 125.204 L 1177 124.909 1177 118.954 L 1177 113 1156.500 113 L 1136 113 1136 110 L 1136 107 1129 107 C 1122.235 107, 1122 107.082, 1122 109.454 M 697 119.500 C 697 125.767, 697.090 126, 699.500 126 C 701.910 126, 702 125.767, 702 119.500 C 702 113.233, 701.910 113, 699.500 113 C 697.090 113, 697 113.233, 697 119.500 M 880 118.848 L 880 124.696 890.656 125.348 C 896.516 125.707, 905.516 126, 910.656 126 L 920 126 920.005 164.250 C 920.008 185.287, 920.301 206.887, 920.656 212.250 L 921.302 222 928.151 222 L 935 222 935 228.500 C 935 234.267, 935.219 235, 936.941 235 C 939.761 235, 940.222 233.622, 939.455 227.483 C 938.897 223.021, 938.419 222, 936.885 222 C 935.064 222, 935 220.345, 935 173.500 L 935 125 928 125 L 921 125 921 119 L 921 113 900.500 113 L 880 113 880 118.848 M 848 180 L 848 235 857 235 L 866 235 866 244 L 866 253 893.500 253 L 921 253 921 246.500 L 921 240 900.500 240 L 880 240 880 237 L 880 234 873.500 234 L 867 234 867 228 C 867 222.267, 866.889 222, 864.500 222 L 862 222 862 173.500 L 862 125 855 125 L 848 125 848 180 M 1103 179.956 L 1103 235 1112.500 235 L 1122 235 1122 244 L 1122 253 1149.500 253 L 1177 253 1177 246.500 L 1177 240 1156.500 240 L 1136 240 1136 237 L 1136 234 1129 234 L 1122 234 1122 228 C 1122 222.676, 1121.776 222, 1120.010 222 C 1118.053 222, 1118.015 221.169, 1117.760 173.750 L 1117.500 125.500 1110.250 125.206 L 1103 124.912 1103 179.956 M 624 137.500 L 624 144 653.500 144 L 683 144 683 183 L 683 222 690 222 L 697 222 697 228.500 C 697 234.767, 697.090 235, 699.500 235 C 701.910 235, 702 234.767, 702 228.500 C 702 222.233, 701.910 222, 699.500 222 L 697 222 697 182.500 L 697 143 690.500 143 L 684 143 684 137 L 684 131 654 131 L 624 131 624 137.500 M 770.202 137.250 C 770.470 142.864, 770.729 143.533, 772.750 143.820 C 774.887 144.123, 775 143.810, 775 137.570 C 775 131.196, 774.924 131, 772.452 131 C 769.962 131, 769.911 131.141, 770.202 137.250 M 1012 146.500 C 1012 148.929, 1012.200 149, 1019 149 L 1026 149 1026 155.500 L 1026 162 1037.500 162 L 1049 162 1049 155.500 L 1049 149 1037.500 149 L 1026 149 1026 146.500 C 1026 144.071, 1025.800 144, 1019 144 C 1012.200 144, 1012 144.071, 1012 146.500 M 1008 173.500 C 1008 179.333, 1008.205 180, 1010 180 C 1011.849 180, 1012 180.667, 1012 188.853 L 1012 197.707 1019.651 198.353 C 1023.859 198.709, 1031.959 199, 1037.651 199 L 1048 199 1048 226 L 1048 253 1057.500 253 L 1067 253 1067 246.500 C 1067 240.667, 1066.795 240, 1065 240 C 1063.063 240, 1063 239.333, 1063 219 L 1063 198 1056 198 L 1049 198 1049 192.033 L 1049 186.066 1037.750 185.783 L 1026.500 185.500 1026.184 182.750 C 1025.872 180.045, 1025.754 180, 1018.934 180 L 1012 180 1012 173.500 C 1012 167.667, 1011.795 167, 1010 167 C 1008.205 167, 1008 167.667, 1008 173.500 M 1136 173.348 L 1136 179.696 1146.656 180.348 C 1152.516 180.707, 1165.791 181, 1176.156 181 L 1195 181 1195 174 L 1195 167 1165.500 167 L 1136 167 1136 173.348 M 1177 219.500 C 1177 221.929, 1177.200 222, 1184 222 L 1191 222 1191 228.500 C 1191 234.333, 1191.205 235, 1193 235 C 1194.795 235, 1195 234.333, 1195 228.500 C 1195 222.667, 1194.795 222, 1193 222 C 1191.533 222, 1191 221.333, 1191 219.500 C 1191 217.071, 1190.800 217, 1184 217 C 1177.200 217, 1177 217.071, 1177 219.500 M 674 294 L 674 297 681 297 L 688 297 688 303.500 L 688 310 717.500 310 L 747 310 747 321.500 L 747 333 754 333 L 761 333 761 340 C 761 346.800, 761.071 347, 763.500 347 C 765.907 347, 766 346.762, 766 340.570 C 766 334.662, 765.817 334.113, 763.750 333.820 C 761.581 333.512, 761.490 333.076, 761.218 321.750 L 760.937 310 754.468 310 L 748 310 748 303.500 L 748 297 718 297 L 688 297 688 294.625 C 688 292.011, 685.176 291, 677.875 291 C 674.236 291, 674 291.183, 674 294 M 948 303 L 948 315 955 315 L 962 315 962 303 L 962 291 955 291 L 948 291 948 303 M 656 392 L 656 474 702 474 L 748 474 748 467.500 L 748 461 709 461 L 670 461 670 385.500 L 670 310 663 310 L 656 310 656 392 M 820 330.500 C 820 332.929, 820.200 333, 827 333 L 834 333 834 339.348 L 834 345.696 844.656 346.348 C 850.516 346.707, 859.741 347, 865.156 347 L 875 347 875 395 L 875 443 882 443 L 889 443 889 449.500 C 889 455.767, 889.090 456, 891.500 456 C 893.563 456, 893.998 455.520, 893.989 453.250 C 893.964 446.898, 892.777 443, 890.869 443 C 889.069 443, 889 441.202, 889 394.500 L 889 346 882.500 346 L 876 346 876 340.020 L 876 334.041 855.250 333.770 L 834.500 333.500 834.184 330.750 C 833.872 328.045, 833.754 328, 826.934 328 C 820.204 328, 820 328.074, 820 330.500 M 930 337.500 L 930 347 939 347 L 948 347 948 401.500 L 948 456 957 456 L 966 456 966 465 L 966 474 984.500 474 L 1003 474 1003 467.500 L 1003 461 992.066 461 L 981.133 461 980.816 458.250 C 980.510 455.587, 980.286 455.491, 973.750 455.204 L 967 454.909 967 448.954 C 967 443.270, 966.887 443, 964.500 443 L 962 443 962 388.539 L 962 334.078 953.250 333.789 C 944.529 333.501, 944.499 333.491, 944.184 330.750 C 943.872 328.045, 943.754 328, 936.934 328 L 930 328 930 337.500 M 1058 330.500 C 1058 332.929, 1058.200 333, 1065 333 C 1071.800 333, 1072 332.929, 1072 330.500 C 1072 328.071, 1071.800 328, 1065 328 C 1058.200 328, 1058 328.071, 1058 330.500 M 981 340 L 981 346 985.250 346.007 C 987.587 346.011, 992.538 346.301, 996.250 346.652 L 1003 347.289 1003 340.645 L 1003 334 992 334 L 981 334 981 340 M 1072 339.849 L 1072 345.698 1081.750 346.344 C 1087.112 346.699, 1096.054 346.992, 1101.621 346.995 L 1111.742 347 1112.446 356 L 1113.150 365 1122.075 365 L 1131 365 1131 358.500 C 1131 352.741, 1130.780 352, 1129.066 352 C 1127.700 352, 1127.040 351.193, 1126.816 349.250 C 1126.510 346.587, 1126.286 346.491, 1119.750 346.204 L 1113 345.909 1113 339.954 L 1113 334 1092.500 334 L 1072 334 1072 339.849 M 802 401 L 802 456 811 456 L 820 456 820 465 L 820 474 848 474 L 876 474 876 467.500 L 876 461 855 461 L 834 461 834 458 L 834 455 827.500 455 L 821 455 821 449 C 821 443.267, 820.889 443, 818.500 443 L 816 443 816 394.500 L 816 346 809 346 L 802 346 802 401 M 1039.667 346.667 C 1039.300 347.033, 1039 355.358, 1039 365.167 L 1039 383 1048.500 383 L 1058 383 1058 392.500 L 1058 402 1085 402 L 1112 402 1112.005 412.750 C 1112.008 418.663, 1112.301 427.887, 1112.656 433.250 L 1113.302 443 1120.151 443 L 1127 443 1127 449.500 C 1127 455.333, 1127.205 456, 1129 456 C 1130.795 456, 1131 455.333, 1131 449.500 C 1131 443.667, 1130.795 443, 1129 443 C 1127.063 443, 1127 442.333, 1127 422 L 1127 401 1120 401 L 1113 401 1113 394.500 L 1113 388 1092.500 388 L 1072 388 1072 385.500 C 1072 383.071, 1071.800 383, 1065 383 L 1058 383 1058 376.500 C 1058 370.667, 1057.795 370, 1056 370 C 1054.111 370, 1054 369.333, 1054 358 L 1054 346 1047.167 346 C 1043.408 346, 1040.033 346.300, 1039.667 346.667 M 688 358.500 L 688 365 717.500 365 L 747 365 747 404 L 747 443 754 443 L 761 443 761 449.500 C 761 455.767, 761.090 456, 763.500 456 C 765.910 456, 766 455.767, 766 449.500 C 766 443.233, 765.910 443, 763.500 443 L 761 443 761 403.500 L 761 364 754.500 364 L 748 364 748 358 L 748 352 718 352 L 688 352 688 358.500 M 1039.667 437.667 C 1039.300 438.033, 1039 442.308, 1039 447.167 L 1039 456 1048.500 456 L 1058 456 1058 465 L 1058 474 1085.500 474 L 1113 474 1113 467.500 L 1113 461 1092.500 461 L 1072 461 1072 458 L 1072 455 1065 455 L 1058 455 1058 449 C 1058 443.667, 1057.778 443, 1056 443 C 1054.444 443, 1054 442.333, 1054 440 L 1054 437 1047.167 437 C 1043.408 437, 1040.033 437.300, 1039.667 437.667" stroke="none" fill="#05fbfb" fill-rule="evenodd"/><path d="M 353.830 29.712 C 351.823 31.795, 347.890 37.100, 345.090 41.500 L 340 49.500 340 45.473 C 340 40.481, 337.706 37, 334.417 37 C 330.439 37, 320.933 47.316, 315.125 57.938 L 312.266 63.166 310.195 59.816 C 309.057 57.973, 307.039 55.446, 305.712 54.200 C 303.629 52.242, 303.135 52.133, 302.084 53.398 C 300.614 55.171, 301.373 58.282, 305.960 69.269 C 311.104 81.593, 314.584 81.956, 320.183 70.753 C 322.177 66.764, 325.370 61.330, 327.279 58.679 L 330.751 53.857 331.442 57.540 C 332.111 61.106, 335.858 66, 337.920 66 C 341.458 66, 351.916 51.966, 359.435 37.128 C 364.436 27.258, 360.813 22.465, 353.830 29.712 M 232.500 34.383 C 220.145 37.043, 191.847 45.058, 173 51.237 C 166.125 53.491, 159.387 55.256, 158.027 55.160 C 150.875 54.655, 124.825 66.565, 116.561 74.118 C 106.537 83.280, 105.776 91.403, 112.473 117.770 C 120.142 147.962, 130.981 174.269, 143.501 193.074 C 149.143 201.550, 158.780 212, 160.954 212 C 161.359 212, 161.174 214.037, 160.541 216.527 C 159.475 220.728, 158.960 221.259, 153.421 223.878 C 150.137 225.431, 142.181 229.728, 135.740 233.426 L 124.029 240.150 118.574 238.929 C 112.405 237.549, 108.042 238.674, 105.501 242.302 C 104.095 244.309, 104.041 244.301, 99.812 241.414 C 94.119 237.528, 80.744 224.758, 79.048 221.589 C 77.829 219.312, 77.949 218.675, 80.256 215.189 C 87.909 203.625, 84.688 194.415, 70.545 187.425 C 61.024 182.719, 58.237 183.103, 50.487 190.186 C 42.152 197.804, 43.247 200.891, 55.183 203.433 C 58.803 204.204, 59.746 207.499, 57.313 210.870 C 56.269 212.317, 52.110 215.188, 48.071 217.250 C 33.786 224.544, 27.317 221.585, 23.041 205.800 C 22.341 203.215, 20.914 200.327, 19.869 199.382 C 18.061 197.745, 17.769 197.808, 13.735 200.702 C 4.978 206.984, 0.984 214.770, 2.466 222.670 C 3.864 230.123, 21.102 243.960, 29.028 243.990 C 30.419 243.996, 34.843 242.425, 38.860 240.500 C 49.383 235.457, 50.639 235.671, 56.384 243.496 C 65.492 255.901, 92.021 281.855, 99.684 285.859 C 103.570 287.889, 106.807 287.169, 111.057 283.330 L 115.119 279.659 119.586 281.830 C 122.043 283.023, 125.504 283.995, 127.277 283.988 C 129.050 283.981, 137.553 281.561, 146.173 278.610 L 161.846 273.243 162.411 277.872 C 162.722 280.417, 163.666 288.125, 164.509 295 C 166.442 310.765, 169.175 321.521, 173.583 330.716 C 177.635 339.167, 186.293 348.985, 193.148 352.899 L 197.918 355.624 192.209 358.389 C 182.508 363.088, 142.824 384.067, 136.691 387.738 C 133.497 389.651, 130.749 391.055, 130.586 390.858 C 130.423 390.661, 129.555 388.300, 128.658 385.610 C 125.112 374.983, 118.845 367.588, 110.113 363.726 C 103.839 360.951, 90.006 360.752, 84.756 363.361 C 75.351 368.036, 67.920 379.682, 65.923 392.876 C 64.215 404.164, 65.953 413.890, 74.702 442 C 77.835 452.065, 78.812 454.016, 82.539 457.636 C 88.354 463.285, 94.876 465.381, 103.748 464.454 C 112.179 463.573, 115.089 462.145, 122 455.499 C 128.092 449.640, 167.209 416.512, 205.115 385.109 L 229.728 364.718 242.114 364.609 L 254.500 364.500 258.303 370.366 C 265.001 380.697, 275.123 390.285, 296.278 406.339 C 306.362 413.991, 309.686 414.819, 310.665 409.924 C 311.077 407.863, 312.471 406.082, 314.890 404.526 C 318.717 402.064, 326.602 394.160, 329.353 390.027 C 331.531 386.758, 331.436 381.227, 329.138 377.460 C 328.119 375.787, 321.161 368.623, 313.677 361.539 L 300.070 348.659 303.785 345.917 C 312.421 339.543, 315.488 330.797, 322.512 292.500 L 326.730 269.500 334.656 269.655 C 340.236 269.764, 344.905 270.590, 350.431 272.445 C 360.522 275.832, 365.876 279.017, 373.551 286.197 C 379.355 291.626, 381.765 292.902, 383.306 291.361 C 383.657 291.009, 385.758 290.672, 387.973 290.611 C 391.003 290.527, 392.001 290.887, 392.001 292.059 C 392 292.916, 392.675 294.491, 393.501 295.559 C 394.974 297.465, 395.038 297.457, 396.982 295.162 L 398.963 292.824 400.142 295.412 C 400.790 296.835, 401.699 298, 402.161 298 C 403.516 298, 403.126 295.122, 401.418 292.515 C 399.873 290.158, 399.901 290.106, 402.580 290.301 C 404.725 290.456, 405.750 289.783, 407.274 287.216 L 409.224 283.931 406.362 279.913 C 404.788 277.703, 402.825 274.915, 402 273.718 L 400.500 271.541 403.500 273.595 C 408.040 276.703, 415.171 280.162, 415.781 279.553 C 416.759 278.575, 412.734 275, 410.654 275 C 408.669 275, 408.666 274.965, 410.521 273.608 C 412.138 272.426, 412.224 271.975, 411.090 270.608 C 410.356 269.724, 408.960 269, 407.988 269 C 407.017 269, 405.163 268.143, 403.870 267.096 L 401.518 265.191 406.241 265.724 C 416.808 266.915, 413.345 262.488, 380.650 233.021 C 366.278 220.066, 353.307 213.931, 340.161 213.868 C 333.562 213.836, 333.044 213.266, 333.012 206 C 332.988 200.352, 330.103 195.852, 325.500 194.285 C 315.621 190.920, 303.922 189.750, 286.500 190.386 C 277.150 190.728, 268.038 191.281, 266.250 191.617 C 262.763 192.272, 261.559 190.437, 264.750 189.331 C 271.609 186.953, 283.392 180.641, 286.917 177.456 C 295.517 169.687, 297.568 161.341, 296.694 137.672 C 295.987 118.544, 294.088 105.355, 289.411 87.091 C 281.980 58.078, 271.622 40.701, 258.226 34.776 C 251.543 31.819, 244.883 31.718, 232.500 34.383 M 240 39.696 C 234.558 40.619, 205.651 48.362, 188.561 53.475 C 163.614 60.939, 151.928 65.126, 134.638 72.792 C 121.688 78.534, 119.450 79.874, 117.248 83.202 C 114.903 86.745, 114.761 87.620, 115.293 95.261 C 116.270 109.298, 125.152 140.762, 133.777 160.742 C 139.232 173.376, 148.563 189.995, 154.041 196.832 C 160.287 204.627, 165.380 207.294, 173.866 207.217 C 189.014 207.078, 230.308 195.767, 262.324 182.986 C 278.319 176.602, 282.914 173.562, 286.500 166.994 C 289.372 161.734, 289.514 160.890, 289.845 147.164 C 290.808 107.254, 278.932 62.865, 263.036 46.961 C 255.914 39.835, 250.064 37.990, 240 39.696 M 638 50.488 L 638 57 631 57 L 624 57 624 60 C 624 62.333, 623.556 63, 622 63 C 620.333 63, 620 63.667, 620 67 C 620 70.333, 620.333 71, 622 71 C 623.467 71, 624 71.667, 624 73.500 C 624 75.981, 623.933 76, 615 76 L 606 76 606 158 L 606 240 651.935 240 L 697.870 240 697.287 231 L 696.704 222 699.352 222 C 701.638 222, 702 222.417, 702 225.055 C 702 228.075, 702.053 228.106, 706.750 227.805 C 711.100 227.526, 711.527 227.268, 711.816 224.750 C 712.040 222.807, 712.700 222, 714.066 222 C 715.780 222, 716 221.259, 716 215.500 L 716 209 723.010 209 L 730.020 209 729.760 163.250 L 729.500 117.500 720.750 117.211 C 712.823 116.949, 712 116.738, 712 114.961 C 712 113.667, 712.680 113, 714 113 C 715.795 113, 716 112.333, 716 106.500 L 716 100 723 100 L 730 100 730 81.500 L 730 63 721.038 63 L 712.075 63 711.788 53.750 L 711.500 44.500 674.750 44.238 L 638 43.975 638 50.488 M 1003.667 44.667 C 1003.300 45.033, 1003 47.938, 1003 51.121 L 1003 56.909 996.250 57.204 L 989.500 57.500 989.531 64.250 C 989.548 67.963, 989.661 109.025, 989.781 155.500 L 990 240 999 240 L 1008 240 1008 234 L 1008 228 1015 228 L 1022 228 1022 213 L 1022 198 1017 198 L 1012 198 1012 189 L 1012 180 1017 180 L 1022 180 1022 174 C 1022 168.706, 1022.231 168, 1023.961 168 C 1025.738 168, 1025.949 168.823, 1026.211 176.750 L 1026.500 185.500 1044.102 185.772 L 1061.704 186.045 1062.352 195.176 C 1062.708 200.198, 1063 212.338, 1063 222.154 L 1063 240 1072 240 L 1081 240 1081 234 L 1081 228 1088 228 L 1095 228 1095 200 L 1095 172 1086 172 L 1077 172 1077 163 L 1077 154 1063 154 L 1049 154 1049 158 L 1049 162 1044.500 162 C 1040.367 162, 1040 162.204, 1040 164.500 C 1040 166.905, 1039.758 167, 1033.631 167 L 1027.262 167 1026.642 163.250 C 1026.301 161.188, 1026.017 157.137, 1026.011 154.250 L 1026 149 1044.500 149 L 1063 149 1063 140 C 1063 131.667, 1063.148 131, 1065 131 C 1066.467 131, 1067 131.667, 1067 133.500 C 1067 135.833, 1067.333 136, 1072 136 C 1076.667 136, 1077 135.833, 1077 133.500 C 1077 131.667, 1077.533 131, 1079 131 C 1080.795 131, 1081 130.333, 1081 124.500 L 1081 118 1088 118 L 1095 118 1095 99.500 L 1095 81 1085.500 81 L 1076 81 1076 87.500 L 1076 94 1068.989 94 L 1061.978 94 1062.646 112.500 L 1063.314 131 1056.203 131 L 1049.091 131 1048.796 124.250 L 1048.500 117.500 1044.250 117.193 L 1040 116.885 1040 123.443 L 1040 130 1033 130 L 1026 130 1026 133 C 1026 135.333, 1025.556 136, 1024 136 C 1022.029 136, 1022 135.333, 1022 90 L 1022 44 1013.167 44 C 1008.308 44, 1004.033 44.300, 1003.667 44.667 M 243.500 63.061 C 227.564 66.103, 214.884 75.459, 211.864 86.404 C 207.862 100.906, 214.165 114.717, 228.205 122.204 C 234.308 125.459, 249.287 125.521, 256.217 122.320 C 262.460 119.437, 270.383 111.906, 273.118 106.256 C 278.940 94.230, 271.857 74.326, 259 66.581 C 252.700 62.785, 249.159 61.981, 243.500 63.061 M 698 69.500 L 698 76 704.500 76 L 711 76 711 69.500 L 711 63 704.500 63 L 698 63 698 69.500 M 624 82.500 L 624 89 631.500 89 L 639 89 639 94 L 639 99 661 99 L 683 99 683 105.500 L 683 112 690 112 L 697 112 697 94 L 697 76 660.500 76 L 624 76 624 82.500 M 766 87.500 L 766 94 759 94 L 752 94 752 167 L 752 240 761.500 240 L 771 240 771 234.046 L 771 228.091 777.750 227.796 L 784.500 227.500 784.760 179.250 C 785.016 131.531, 785.042 131, 787.047 131 C 788.959 131, 789.059 130.470, 788.788 121.750 L 788.500 112.500 781.750 112.204 C 775.330 111.923, 775 111.788, 775 109.454 C 775 107.082, 775.235 107, 782 107 L 789 107 789 110 L 789 113 807 113 L 825 113 825 106.500 L 825 100 832 100 L 839 100 839 90.500 L 839 81 820.500 81 L 802 81 802 87.500 L 802 94 795 94 C 788.200 94, 788 94.071, 788 96.500 C 788 98.056, 787.433 99, 786.500 99 C 785.278 99, 785 97.333, 785 90 L 785 81 775.500 81 L 766 81 766 87.500 M 894 87.500 L 894 94 887 94 C 880.200 94, 880 94.071, 880 96.500 C 880 98.500, 879.500 99, 877.500 99 C 875.250 99, 875 99.400, 875 103 C 875 106.600, 875.250 107, 877.500 107 C 879.490 107, 880 107.503, 880 109.462 C 880 111.881, 879.835 111.930, 870.750 112.212 L 861.500 112.500 861.533 118.750 C 861.552 122.188, 861.664 146.825, 861.783 173.500 L 862 222 871 222 L 880 222 880 231 L 880 240 907.500 240 L 935 240 935 231 C 935 222.667, 935.148 222, 937 222 C 938.556 222, 939 222.667, 939 225 C 939 227.933, 939.111 228, 944 228 C 948.889 228, 949 227.933, 949 225 C 949 222.667, 949.444 222, 951 222 C 952.795 222, 953 221.333, 953 215.500 L 953 209 960 209 L 967 209 967 154 L 967 99 958 99 L 949 99 949 90 L 949 81 921.500 81 L 894 81 894 87.500 M 1149 87.454 L 1149 93.909 1142.250 94.204 C 1136.117 94.473, 1135.471 94.706, 1135.180 96.750 C 1134.975 98.196, 1134.171 99, 1132.930 99 C 1131.345 99, 1131 99.715, 1131 103 C 1131 106.600, 1131.250 107, 1133.500 107 C 1135.611 107, 1136 107.467, 1136 110 L 1136 113 1162.849 113 L 1189.698 113 1190.344 122.750 C 1190.699 128.113, 1190.992 136.213, 1190.995 140.750 L 1191 149 1184 149 L 1177 149 1177 142.500 L 1177 136 1163.552 136 L 1150.105 136 1149.802 130.750 L 1149.500 125.500 1142.797 125.205 L 1136.093 124.911 1135.797 118.705 L 1135.500 112.500 1126.096 112.210 L 1116.691 111.921 1117.346 122.616 C 1117.706 128.498, 1118 153.266, 1118 177.656 L 1118 222 1126.500 222 L 1135 222 1135 226.360 C 1135 228.759, 1135.286 232.809, 1135.636 235.360 L 1136.272 240 1163.636 240 L 1191 240 1191 231 C 1191 222.667, 1191.148 222, 1193 222 C 1194.556 222, 1195 222.667, 1195 225 C 1195 227.933, 1195.111 228, 1200 228 C 1204.889 228, 1205 227.933, 1205 225 C 1205 222.667, 1205.444 222, 1207 222 C 1208.795 222, 1209 221.333, 1209 215.500 L 1209 209 1216 209 L 1223 209 1223 199.500 L 1223 190 1213.500 190 L 1204 190 1204 196.500 L 1204 203 1197 203 L 1190 203 1190 206 L 1190 209 1170 209 L 1150 209 1150 194.500 L 1150 180 1143 180 L 1136 180 1136 173.365 L 1136 166.729 1172.500 167.196 L 1209 167.663 1209 161.331 L 1209 155 1216 155 L 1223 155 1223 127 L 1223 99 1214 99 L 1205 99 1205 90 L 1205 81 1177 81 L 1149 81 1149 87.454 M 218.407 88.671 C 214.080 103.555, 224.716 117.765, 240.790 118.575 L 247.500 118.913 241.776 117.996 C 231.781 116.394, 226.984 112.591, 222.448 102.673 C 220.182 97.719, 219.842 95.809, 220.174 89.923 C 220.389 86.115, 220.451 83, 220.311 83 C 220.171 83, 219.314 85.552, 218.407 88.671 M 168.105 89.583 C 146.791 95.314, 134.445 114.771, 140.519 133.058 C 144.339 144.557, 156.907 152.552, 170 151.812 C 187.760 150.808, 206 133.554, 206 117.758 C 206 107.055, 199.583 98.804, 185.583 91.507 C 178.199 87.658, 176.114 87.429, 168.105 89.583 M 63.500 92.043 C 54.993 92.981, 48.717 94.385, 43.742 96.464 C 36.748 99.386, 40.520 101.107, 49.402 99.047 C 51.548 98.549, 56.561 97.837, 60.543 97.464 L 67.782 96.785 66.459 102.643 C 64.080 113.173, 62.760 127.683, 63.974 129.951 C 64.577 131.078, 65.617 132.045, 66.285 132.100 C 66.953 132.155, 70.425 132.311, 74 132.446 C 78.123 132.601, 82.146 133.471, 85 134.824 C 87.475 135.996, 90.893 136.966, 92.595 136.978 C 97.779 137.015, 100.833 131.613, 97.750 127.861 C 96.037 125.777, 85.454 121.346, 80.144 120.490 L 75.789 119.789 76.507 106.882 C 77.278 93.021, 76.748 90.873, 72.628 91.136 C 71.457 91.210, 67.350 91.619, 63.500 92.043 M 935 106 L 935 112 941.500 112 L 948 112 948 106 L 948 100 941.500 100 L 935 100 935 106 M 1191 106 L 1191 112 1197.500 112 L 1204 112 1204 106 L 1204 100 1197.500 100 L 1191 100 1191 106 M 150.087 107.877 C 147.176 111.966, 144.899 121.483, 145.654 126.408 C 146.969 134.989, 152.072 141.241, 159.899 143.862 C 165.388 145.700, 165.540 145.228, 160.803 141.058 C 152.576 133.816, 148.278 119.610, 151.333 109.750 C 152.142 107.138, 152.654 105, 152.470 105 C 152.287 105, 151.214 106.295, 150.087 107.877 M 697 118.375 C 697 121.331, 697.281 125.156, 697.625 126.875 C 698.247 129.983, 698.285 130, 704.625 130 L 711 130 711 124 L 711 118 706.500 118 C 702.367 118, 702 117.796, 702 115.500 C 702 113.500, 701.500 113, 699.500 113 C 697.143 113, 697 113.308, 697 118.375 M 880 119 L 880 125 887 125 L 894 125 894 167 L 894 209 887.500 209 L 881 209 881 215 L 881 221 887.500 221 L 894 221 894 215 L 894 209 907.500 209 L 921 209 921 215.500 L 921 222 928 222 L 935 222 935 176.654 C 935 151.713, 934.708 127.188, 934.350 122.154 L 933.701 113 906.850 113 L 880 113 880 119 M 265.673 130.660 C 265.310 131.023, 265.310 135.184, 265.673 139.906 L 266.333 148.491 262.416 145.563 C 260.262 143.953, 257.022 141.367, 255.215 139.818 C 253.409 138.268, 250.830 137, 249.484 137 C 246.810 137, 246.220 138.388, 245.764 145.758 L 245.500 150.016 239.756 145.934 C 236.597 143.688, 233.229 142.002, 232.272 142.186 C 230.298 142.566, 229.149 147.413, 229.058 155.750 C 229.026 158.637, 228.662 160.979, 228.250 160.954 C 227.838 160.928, 224.350 158.007, 220.500 154.462 C 216.650 150.918, 212.993 148.014, 212.372 148.009 C 210.153 147.992, 209.278 150.652, 208.096 161 C 206.331 176.459, 206.830 175.929, 199.832 169.782 C 190.608 161.680, 186.943 159.085, 185.503 159.637 C 184.739 159.931, 183.439 164.105, 182.409 169.572 C 180.755 178.351, 180.469 179, 178.243 179 C 174.032 179, 176.106 182.281, 182.506 185.742 C 189.199 189.363, 192.348 189.565, 192.799 186.405 C 193.038 184.734, 192.176 183.957, 188.549 182.572 C 183.427 180.616, 183.260 180.024, 185.664 172.396 L 187.329 167.116 196.778 176.058 C 201.974 180.976, 207.085 185, 208.135 185 C 210.725 185, 211.723 182.327, 213.788 169.860 L 215.551 159.220 222.820 165.610 C 229.786 171.734, 233.114 173.243, 234.545 170.927 C 234.910 170.337, 235.499 165.831, 235.854 160.913 L 236.500 151.972 241.803 155.549 C 249.257 160.575, 251.266 160.060, 252.350 152.844 L 253.199 147.188 261.150 152.602 C 267.738 157.088, 269.435 157.837, 271.051 156.973 C 272.647 156.119, 273 154.855, 273 149.996 C 273 145.240, 273.286 144.173, 274.442 144.616 C 275.234 144.920, 276.022 146.144, 276.192 147.335 C 276.390 148.728, 277.211 149.500, 278.494 149.500 C 280.167 149.500, 280.620 148.552, 281.309 143.616 C 282.226 137.050, 280.944 134.040, 278.587 137.229 C 277.430 138.795, 277.005 138.535, 274.093 134.479 C 271.060 130.257, 267.632 128.702, 265.673 130.660 M 624 137.500 L 624 144 631.500 144 L 639 144 639 176.500 L 639 209 661 209 L 683 209 683 215.500 L 683 222 690 222 L 697 222 697 176.500 L 697 131 660.500 131 L 624 131 624 137.500 M 770.202 137.250 C 770.470 142.864, 770.729 143.533, 772.750 143.820 C 774.887 144.123, 775 143.810, 775 137.570 C 775 131.196, 774.924 131, 772.452 131 C 769.962 131, 769.911 131.141, 770.202 137.250 M 441.052 136.109 C 436.166 139.088, 422.861 149.339, 420.595 151.871 C 419.547 153.042, 418.329 154, 417.887 154 C 417.445 154, 416.953 150.559, 416.792 146.354 C 416.527 139.401, 416.258 138.527, 413.837 136.723 C 412.018 135.368, 410.373 134.941, 408.646 135.374 C 404.574 136.396, 388.456 147.664, 381.371 154.442 C 375.839 159.735, 374.888 161.138, 375.169 163.596 C 375.457 166.121, 375.894 166.484, 378.524 166.377 C 380.270 166.306, 385.931 163.652, 391.913 160.100 C 397.614 156.715, 402.370 154.070, 402.483 154.223 C 402.595 154.375, 403.473 156.975, 404.433 160 C 408.331 172.276, 413.893 175.145, 420.428 168.250 C 422.383 166.188, 423.987 164.220, 423.991 163.878 C 424.003 163.065, 439.324 150.419, 445.298 146.291 C 451.036 142.326, 452.389 138.544, 449.040 135.831 C 446.168 133.505, 445.273 133.536, 441.052 136.109 M 1012 146.500 C 1012 148.929, 1012.200 149, 1019 149 C 1025.800 149, 1026 148.929, 1026 146.500 C 1026 144.071, 1025.800 144, 1019 144 C 1012.200 144, 1012 144.071, 1012 146.500 M 1008 173.500 C 1008 179.333, 1008.205 180, 1010 180 C 1011.795 180, 1012 179.333, 1012 173.500 C 1012 167.667, 1011.795 167, 1010 167 C 1008.205 167, 1008 167.667, 1008 173.500 M 1063 179 L 1063 185 1069.500 185 L 1076 185 1076 179 L 1076 173 1069.500 173 L 1063 173 1063 179 M 58.382 190.641 C 54.774 192.508, 50.820 196.154, 51.580 196.913 C 51.895 197.228, 54.009 197.939, 56.279 198.493 C 62.055 199.903, 64.771 204.485, 63.111 210.022 C 60.259 219.544, 41.073 228.489, 30.785 225.094 C 25.715 223.421, 23.090 220.081, 20.029 211.409 L 17.315 203.720 13.216 207.424 C 10.962 209.461, 8.368 213.089, 7.452 215.487 C 5.840 219.706, 5.857 219.973, 7.962 223.719 C 10.316 227.907, 19.981 236.282, 24.399 237.962 C 28.645 239.576, 31.008 239.231, 37.840 235.999 C 41.327 234.350, 45.039 233, 46.090 233 C 47.140 233, 48 232.315, 48 231.478 C 48 230.640, 49.842 227.957, 52.093 225.515 C 56.506 220.727, 64.510 217, 70.379 217 C 73.303 217, 73.987 216.439, 76.341 212.115 C 77.803 209.428, 79 205.862, 79 204.191 C 79 199.051, 73.140 193.665, 63.598 190.037 C 61.986 189.425, 60.373 189.611, 58.382 190.641 M 266 198.608 C 252.885 200.360, 208.345 208.297, 193 211.617 C 186.675 212.985, 178.391 214.224, 174.590 214.369 C 168.346 214.607, 167.579 214.867, 166.626 217.066 C 164.613 221.716, 165.476 251.026, 168.376 276.500 C 171.520 304.112, 173.139 312.921, 176.739 322 C 184.780 342.281, 195.901 350.261, 224.157 356.029 C 242.280 359.728, 256.410 358.388, 277.500 350.970 C 296.570 344.262, 304.094 338.700, 307.920 328.480 C 310.333 322.037, 315.887 294.910, 320.919 265 C 325.936 235.171, 327.194 223.859, 326.809 212.011 C 326.514 202.957, 326.383 202.465, 323.946 201.300 C 315.356 197.192, 286.603 195.856, 266 198.608 M 1136 215 L 1136 221 1142.500 221 L 1149 221 1149 215 L 1149 209 1142.500 209 L 1136 209 1136 215 M 1177 219.500 C 1177 221.929, 1177.200 222, 1184 222 C 1190.800 222, 1191 221.929, 1191 219.500 C 1191 217.071, 1190.800 217, 1184 217 C 1177.200 217, 1177 217.071, 1177 219.500 M 333 222.682 C 333 226.505, 329.641 252.576, 328.401 258.375 C 327.519 262.498, 329.103 261.118, 334.404 253.145 C 342.205 241.410, 349.173 222.461, 346.333 220.706 C 345.837 220.399, 342.634 219.832, 339.215 219.445 L 333 218.742 333 222.682 M 61.500 223.896 C 59.300 224.914, 56.163 227.171, 54.529 228.910 L 51.557 232.072 54.455 234.382 L 57.353 236.693 60.473 232.597 C 62.189 230.343, 65.485 227.454, 67.797 226.175 C 70.109 224.896, 72 223.434, 72 222.925 C 72 221.361, 65.721 221.942, 61.500 223.896 M 350 224.465 C 350 230.710, 341.481 249.183, 334.485 258.109 L 330.089 263.718 337.294 264.323 C 341.257 264.656, 345.425 265.199, 346.555 265.530 C 348.214 266.015, 349.707 264.756, 354.295 258.998 C 360.507 251.200, 366.079 241.698, 368.016 235.600 C 369.176 231.947, 369.103 231.585, 366.877 229.883 C 363.951 227.646, 352.670 222, 351.127 222 C 350.507 222, 350 223.109, 350 224.465 M 71.500 227.434 C 67.424 229.153, 62.228 233.658, 60.527 236.948 C 59.237 239.441, 59.340 239.973, 61.813 243.602 C 63.291 245.772, 67.060 249.938, 70.188 252.860 L 75.876 258.173 77.042 253.842 C 78.375 248.894, 81.514 242.318, 83.767 239.755 C 85.174 238.154, 84.862 237.538, 79.959 232.255 C 77.021 229.090, 74.591 226.426, 74.559 226.335 C 74.527 226.243, 73.150 226.738, 71.500 227.434 M 153.517 229.130 C 148.824 232.656, 148.740 234.224, 152.621 245.890 C 154.867 252.639, 159.804 262.529, 160.554 261.780 C 160.724 261.609, 160.460 258.326, 159.965 254.485 C 159.470 250.643, 159.051 242.662, 159.033 236.750 C 159.015 230.838, 158.662 226.031, 158.250 226.068 C 157.838 226.106, 155.708 227.484, 153.517 229.130 M 72 240.363 C 72 246.277, 72.155 246.719, 74.188 246.613 C 75.969 246.521, 76.629 245.502, 77.736 241.131 C 79.008 236.108, 78.856 233.811, 77.350 235.317 C 76.992 235.675, 76.122 238.112, 75.417 240.734 L 74.135 245.500 74.067 239.750 C 74.030 236.588, 73.550 234, 73 234 C 72.438 234, 72 236.788, 72 240.363 M 139.081 238.788 L 131.756 243.372 132.278 249.127 C 133.161 258.866, 140.829 273, 145.230 273 C 148.296 273, 161 268.766, 161 267.745 C 161 267.271, 159.672 265.222, 158.048 263.191 C 154.172 258.344, 150.407 249.957, 148.193 241.240 L 146.406 234.204 139.081 238.788 M 369.653 242.249 C 365.574 250.729, 358.120 261.112, 353.838 264.278 L 350.955 266.409 357.137 269.215 C 363.046 271.898, 363.411 271.945, 365.409 270.297 C 372.101 264.779, 378.569 257.769, 381.697 252.646 L 385.271 246.791 379.261 240.781 L 373.250 234.770 369.653 242.249 M 286.500 238.721 C 284.300 238.842, 277.377 239.465, 271.115 240.105 C 257.574 241.489, 255.302 242.850, 256.498 248.863 C 256.896 250.863, 257.510 259.333, 257.861 267.685 C 258.495 282.751, 258.523 282.895, 261.437 285.935 C 264.297 288.919, 264.617 289, 273.556 289 C 284.475 289, 299.280 286.603, 303.487 284.153 C 307.889 281.590, 308.798 278.831, 309.962 264.492 C 311.460 246.051, 310.093 240.568, 303.758 239.592 C 299.048 238.866, 291.119 238.466, 286.500 238.721 M 84.497 244.416 C 81.373 249.746, 80 254.247, 80 259.158 C 80 262.565, 80.665 263.384, 89.250 270.549 C 94.771 275.157, 98.577 277.712, 98.690 276.885 C 98.795 276.123, 99.058 269.552, 99.276 262.283 L 99.671 249.065 93.834 244.533 C 90.624 242.040, 87.792 240, 87.541 240 C 87.290 240, 85.920 241.987, 84.497 244.416 M 143.506 243.981 C 143.086 245.304, 143.909 247.461, 145.987 250.481 C 149.045 254.926, 151.009 256.209, 150.991 253.750 C 150.981 252.436, 145.258 242, 144.547 242 C 144.320 242, 143.852 242.891, 143.506 243.981 M 109 248 C 107.825 249.650, 106.056 251, 105.068 251 C 102.806 251, 102 256.160, 102 270.640 C 102 282.418, 102.567 283.075, 108.347 278 C 110.226 276.350, 112.765 275, 113.989 275 C 115.563 275, 116.044 274.558, 115.635 273.490 C 113.108 266.905, 112.603 254.214, 114.591 247.250 C 115.579 243.788, 111.621 244.319, 109 248 M 126.668 246.160 C 125.660 246.728, 123.332 246.910, 121.495 246.565 C 117.343 245.786, 116.653 247.401, 116.827 257.500 C 117.053 270.660, 120.778 279, 126.429 279 C 128.512 279, 138.626 276.318, 140.251 275.335 C 140.663 275.086, 139.442 272.839, 137.536 270.343 C 133.604 265.193, 130.299 257.088, 129.228 249.968 C 128.579 245.652, 128.302 245.240, 126.668 246.160 M 265.368 246.704 C 262.298 247.101, 262.253 247.183, 263.138 250.805 C 263.635 252.837, 264.055 260.125, 264.073 267 C 264.117 284.445, 264.136 284.468, 277.367 283.701 C 288.785 283.039, 297.467 281.453, 300.640 279.450 C 302.357 278.365, 303.003 276.459, 303.912 269.799 C 304.535 265.235, 305.147 258.125, 305.272 254 L 305.500 246.500 287 246.399 C 276.825 246.344, 267.090 246.481, 265.368 246.704 M 277.481 249.394 C 267.442 253.768, 263.966 267.023, 270.584 275.699 C 274.144 280.366, 279.046 282.327, 285.762 281.770 C 294.616 281.036, 300.041 275.552, 300.785 266.585 C 301.168 261.964, 300.824 260.376, 298.634 256.639 C 294.336 249.305, 285.014 246.111, 277.481 249.394 M 123.437 251.500 C 124.109 254.401, 124.077 254.434, 122.484 252.500 L 120.837 250.500 121.532 252.500 C 121.914 253.600, 122.453 255.287, 122.730 256.250 C 123.007 257.212, 123.559 258, 123.956 258 C 124.354 258, 125.260 259.238, 125.971 260.750 C 128.011 265.095, 128.354 261.594, 126.459 255.754 C 124.522 249.784, 122.322 246.687, 123.437 251.500 M 386.201 252.385 C 383.877 256.322, 383.797 256.238, 391.135 257.536 C 396.242 258.440, 396.536 256.929, 392.097 252.595 L 388.277 248.865 386.201 252.385 M 89.706 251.325 C 88.922 253.367, 91.210 262.096, 92.424 261.696 C 93.016 261.501, 93.635 258.790, 93.800 255.671 C 94.067 250.619, 93.888 250, 92.157 250 C 91.088 250, 89.985 250.596, 89.706 251.325 M 109.996 254.278 C 109.029 256.278, 108.426 256.699, 107.842 255.778 C 106.585 253.797, 106.920 258.948, 108.306 262.913 C 108.963 264.791, 110.200 266.426, 111.055 266.546 C 112.350 266.729, 112.550 265.739, 112.248 260.633 C 111.716 251.663, 111.524 251.119, 109.996 254.278 M 378.140 263.161 C 376.292 265.265, 372.821 268.227, 370.427 269.743 C 368.032 271.259, 366.074 272.725, 366.074 273 C 366.075 273.275, 367.922 274.778, 370.178 276.340 L 374.281 279.181 376.890 277.222 C 378.919 275.700, 379.500 274.399, 379.500 271.382 L 379.500 267.500 383.798 267.774 C 387.669 268.020, 387.993 267.871, 387.061 266.274 C 386.492 265.298, 385.008 263.338, 383.763 261.918 L 381.500 259.337 378.140 263.161 M 459.067 263.630 C 454.330 267.888, 451 272.518, 451 274.843 C 451 275.362, 451.777 276.084, 452.726 276.448 C 453.981 276.930, 455.595 275.800, 458.645 272.305 C 461.633 268.881, 462.974 267.931, 463.311 269 C 463.571 269.825, 465.025 275.373, 466.543 281.329 C 468.060 287.286, 469.941 292.798, 470.722 293.579 C 473.108 295.965, 475.823 295.244, 477.615 291.750 C 480.112 286.880, 484.982 280, 485.933 280 C 486.393 280, 487.066 282.363, 487.427 285.250 C 488.975 297.603, 495.960 311.433, 500.334 310.807 C 503.577 310.343, 503.511 307.466, 500.085 300.033 C 498.377 296.327, 496.152 289.402, 495.141 284.643 C 493.003 274.581, 491.170 272, 486.165 272 C 483.280 272, 481.887 272.809, 478.495 276.451 L 474.350 280.902 472.022 271.701 C 470.742 266.640, 469.298 261.712, 468.812 260.750 C 467.367 257.885, 464.521 258.726, 459.067 263.630 M 702 271.500 L 702 278 695 278 L 688 278 688 281 C 688 283.552, 687.618 284, 685.440 284 C 683.092 284, 682.905 284.312, 683.190 287.750 C 683.439 290.762, 683.943 291.563, 685.750 291.820 C 687.379 292.051, 688 292.810, 688 294.570 C 688 296.963, 687.865 297, 679 297 L 670 297 670 379 L 670 461 715.935 461 L 761.870 461 761.287 452 L 760.704 443 763.352 443 C 765.628 443, 766 443.422, 766 446 C 766 448.889, 766.167 449, 770.500 449 C 774.833 449, 775 448.889, 775 446 C 775 443.467, 775.389 443, 777.500 443 C 779.910 443, 780 442.767, 780 436.500 L 780 430 787.010 430 L 794.020 430 793.760 384.250 L 793.500 338.500 784.250 338.212 C 775.823 337.951, 775 337.750, 775 335.962 C 775 334.536, 775.683 334, 777.500 334 C 779.910 334, 780 333.767, 780 327.500 L 780 321 787 321 L 794 321 794 302.500 L 794 284 784.500 284 L 775 284 775 274.500 L 775 265 738.500 265 L 702 265 702 271.500 M 976 271.500 L 976 278 969 278 L 962 278 962 296.500 L 962 315 952.962 315 L 943.925 315 944.212 324.250 L 944.500 333.500 953.250 333.789 L 962 334.078 962 388.539 L 962 443 971 443 L 980 443 980.011 448.250 C 980.017 451.137, 980.301 455.188, 980.642 457.250 L 981.262 461 999.131 461 L 1017 461 1017 455 L 1017 449 1024 449 L 1031 449 1031 439.500 L 1031 430 1013.011 430 L 995.022 430 994.761 388.250 L 994.500 346.500 987.750 346.204 L 981 345.909 981 339.954 L 981 334 999 334 L 1017 334 1017 327.500 L 1017 321 1024 321 L 1031 321 1031 311.500 L 1031 302 1013 302 L 995 302 995 283.500 L 995 265 985.500 265 L 976 265 976 271.500 M 396.043 272.877 C 396.010 273.924, 394.800 274.139, 391 273.774 C 388.250 273.510, 386 273.482, 386 273.713 C 386 274.994, 388.233 278, 389.185 278 C 389.798 278, 393.444 279.813, 397.288 282.029 C 401.131 284.245, 404.493 285.841, 404.758 285.575 C 405.023 285.310, 404.972 284.060, 404.644 282.797 C 403.912 279.971, 396.102 270.965, 396.043 272.877 M 378.195 278.818 L 375.891 280.591 378.003 282.503 C 379.165 283.554, 381.228 284.563, 382.587 284.745 C 385.058 285.076, 385.059 285.076, 383.529 281.416 C 382.688 279.403, 382 277.586, 382 277.378 C 382 276.529, 380.366 277.148, 378.195 278.818 M 762 290.500 L 762 297 768.500 297 L 775 297 775 290.500 L 775 284 768.500 284 L 762 284 762 290.500 M 174 292.500 C 174 294.677, 179.374 313, 180.012 313 C 180.413 313, 179.471 308.448, 177.920 302.884 C 175.391 293.810, 174 290.125, 174 292.500 M 180.197 303.250 C 182.417 309.969, 184.658 313.626, 183.413 308.500 C 182.521 304.826, 179.246 297, 178.601 297 C 178.343 297, 179.061 299.813, 180.197 303.250 M 688 303.500 L 688 310 695.500 310 L 703 310 703 315 L 703 320 725 320 L 747 320 747 326.500 L 747 333 754 333 L 761 333 761 338.875 C 761 342.106, 761.281 346.156, 761.625 347.875 C 762.247 350.983, 762.285 351, 768.625 351 L 775 351 775 345 L 775 339 770.500 339 C 766.401 339, 766 338.783, 766 336.570 C 766 334.810, 765.379 334.051, 763.750 333.820 C 761.522 333.503, 761.497 333.321, 761.227 315.250 L 760.955 297 724.477 297 L 688 297 688 303.500 M 848 308.500 L 848 315 841 315 C 834.200 315, 834 315.071, 834 317.500 C 834 319.333, 833.467 320, 832 320 C 830.333 320, 830 320.667, 830 324 C 830 327.288, 830.344 328, 831.934 328 C 833.300 328, 833.960 328.807, 834.184 330.750 L 834.500 333.500 861.750 333.766 L 889 334.032 889 388.516 L 889 443 882 443 L 875 443 875 436.500 L 875 430 862.011 430 L 849.022 430 848.761 388.250 L 848.500 346.500 841.250 346.206 L 834 345.912 834 339.456 L 834 333 825 333 L 816 333 816 388 L 816 443 825 443 L 834 443 834 452 L 834 461 861.500 461 L 889 461 889 452 C 889 443.770, 889.165 443, 890.934 443 C 892.300 443, 892.960 443.807, 893.184 445.750 C 893.473 448.268, 893.900 448.526, 898.250 448.805 C 902.947 449.106, 903 449.075, 903 446.055 C 903 443.463, 903.379 443, 905.500 443 C 907.910 443, 908 442.767, 908 436.500 L 908 430 915.009 430 L 922.017 430 921.759 375.250 L 921.500 320.500 912.250 320.212 L 903 319.925 903 310.962 L 903 302 875.500 302 L 848 302 848 308.500 M 1085 308.500 L 1085 315 1078.500 315 C 1072.233 315, 1072 315.090, 1072 317.500 C 1072 319.500, 1071.500 320, 1069.500 320 C 1067.250 320, 1067 320.400, 1067 324 C 1067 327.600, 1067.250 328, 1069.500 328 C 1071.500 328, 1072 328.500, 1072 330.500 C 1072 332.994, 1071.977 333, 1062.349 333 L 1052.698 333 1053.344 342.750 C 1053.699 348.113, 1053.992 356.438, 1053.995 361.250 L 1054 370 1063 370 L 1072 370 1072 378.854 L 1072 387.708 1098.545 388.232 C 1113.144 388.520, 1125.360 389.027, 1125.691 389.358 C 1126.022 389.689, 1126.515 401.894, 1126.787 416.480 L 1127.281 443 1120.140 443 L 1113 443 1113 436.500 L 1113 430 1099.500 430 L 1086 430 1086 420.500 L 1086 411 1076.500 411 L 1067 411 1067 417.500 L 1067 424 1060 424 L 1053 424 1053 428.860 C 1053 431.534, 1053.286 435.809, 1053.636 438.360 L 1054.272 443 1063.136 443 L 1072 443 1072 452 L 1072 461 1099.500 461 L 1127 461 1127 452 C 1127 443.667, 1127.148 443, 1129 443 C 1130.556 443, 1131 443.667, 1131 446 C 1131 448.933, 1131.111 449, 1136 449 C 1140.889 449, 1141 448.933, 1141 446 C 1141 443.667, 1141.444 443, 1143 443 C 1144.795 443, 1145 442.333, 1145 436.500 L 1145 430 1152 430 L 1159 430 1159 402.500 L 1159 375 1150 375 L 1141 375 1141 366 L 1141 357 1136 357 L 1131 357 1131 361 L 1131 365 1122 365 L 1113 365 1113 361 L 1113 357 1099.552 357 L 1086.105 357 1085.802 351.750 L 1085.500 346.500 1078.750 346.204 L 1072 345.909 1072 339.954 L 1072 334 1099 334 L 1126 334 1126.011 339.250 C 1126.017 342.137, 1126.301 346.188, 1126.642 348.250 L 1127.262 352 1136.131 352 L 1145 352 1145 345.500 L 1145 339 1152 339 L 1159 339 1159 329.500 L 1159 320 1150 320 L 1141 320 1141 311 L 1141 302 1113 302 L 1085 302 1085 308.500 M 66.455 309.455 C 64.243 311.666, 64 312.731, 63.999 320.205 L 63.999 328.500 55.731 328.513 C 48.559 328.524, 46.677 328.921, 41.526 331.513 C 34.497 335.050, 31.451 338.677, 32.385 342.398 C 33.401 346.446, 37.155 346.771, 44.167 343.420 C 51.810 339.767, 58.753 339.606, 65.821 342.916 C 75.514 347.456, 78.161 344.384, 77.280 329.614 L 76.706 320 80.911 320 C 83.224 320, 89.431 320.530, 94.705 321.178 C 104.146 322.339, 104.321 322.322, 106.132 320.085 C 110.057 315.238, 105.162 312.085, 88.781 308.910 C 74.939 306.227, 69.551 306.358, 66.455 309.455 M 348.667 312.667 C 346.371 314.962, 350.383 338.556, 353.690 342.210 C 356.472 345.284, 360.245 344.508, 363.142 340.265 C 364.651 338.054, 364.718 338.103, 369.333 344.765 C 375.995 354.384, 381.712 357.817, 384.337 353.775 C 385.850 351.448, 384.662 348.521, 376.963 335.595 C 370.090 324.057, 367.176 321.740, 361.998 323.695 C 359.468 324.650, 359.122 324.478, 357.744 321.589 C 356.059 318.057, 351.217 312, 350.078 312 C 349.668 312, 349.033 312.300, 348.667 312.667 M 889 327 L 889 333 896 333 L 903 333 903 327 L 903 321 896 321 L 889 321 889 327 M 1127 327 L 1127 333 1133.500 333 L 1140 333 1140 327 L 1140 321 1133.500 321 L 1127 321 1127 327 M 288.184 354.528 C 284.710 355.865, 280.435 357.937, 278.684 359.133 C 273.517 362.663, 266 370.298, 266 372.016 C 266 372.892, 267.548 375.108, 269.440 376.942 L 272.881 380.277 277.690 375.460 C 283.411 369.732, 295.808 361.421, 300.010 360.498 C 301.654 360.137, 303 359.515, 303 359.117 C 303 358.032, 296.551 351.993, 295.452 352.049 C 294.929 352.076, 291.658 353.191, 288.184 354.528 M 688 358.500 L 688 365 695.500 365 L 703 365 703 397.500 L 703 430 725 430 L 747 430 747 436.500 L 747 443 754 443 L 761 443 761 397.500 L 761 352 724.500 352 L 688 352 688 358.500 M 1072 363.500 L 1072 370 1078.500 370 L 1085 370 1085 363.500 L 1085 357 1078.500 357 L 1072 357 1072 363.500 M 198.829 360.581 L 194.158 362.958 197.009 366.010 C 198.577 367.688, 200.603 371.300, 201.512 374.037 L 203.165 379.013 208.524 374.435 C 212.295 371.214, 213.697 369.375, 213.258 368.229 C 212.914 367.334, 212.469 367.093, 212.269 367.694 C 211.682 369.454, 208.235 368.008, 206.422 365.241 C 205.017 363.096, 204.991 362.783, 206.262 363.270 C 207.377 363.698, 207.639 363.337, 207.262 361.894 C 206.350 358.406, 203.864 358.019, 198.829 360.581 M 215.032 363.830 C 217.192 366.750, 217.369 366.805, 219.717 365.266 C 222.468 363.463, 221.753 362.711, 216.144 361.512 L 212.788 360.795 215.032 363.830 M 263.500 362.485 C 259.533 363.750, 258.966 365.049, 261.205 367.747 C 262.776 369.640, 263.389 369.344, 266.880 365 C 270.288 360.759, 269.875 360.452, 263.500 362.485 M 298.457 364.860 C 294.957 366.516, 291.622 368.936, 290.532 370.610 C 288.982 372.991, 288.945 373.259, 290.325 372.128 C 291.315 371.317, 292 371.190, 292 371.819 C 292 372.403, 291.570 373.148, 291.044 373.473 C 290.518 373.798, 290.335 374.837, 290.638 375.782 C 291.040 377.037, 290.937 377.151, 290.256 376.203 C 289.506 375.159, 289.072 375.208, 288.039 376.453 C 286.631 378.149, 284.507 378.607, 285.500 377 C 286.675 375.098, 284.814 376.008, 282.944 378.250 C 281.200 380.340, 281.064 380.363, 281.033 378.576 C 281.002 376.786, 280.825 376.816, 278.500 379 C 277.125 380.292, 276 381.666, 276 382.054 C 276 382.442, 278.545 384.681, 281.654 387.029 C 287.938 391.773, 287.131 392.019, 292 383.875 C 294.948 378.945, 304.545 371.516, 310.127 369.844 L 314.066 368.664 310.837 365.332 C 309.061 363.499, 306.908 362, 306.054 362.001 C 305.199 362.001, 301.781 363.288, 298.457 364.860 M 184.317 367.845 L 177.134 371.500 179.317 374.462 C 180.518 376.092, 182.636 380.894, 184.025 385.135 L 186.549 392.846 193.275 387.211 C 197.554 383.625, 199.996 380.835, 199.990 379.538 C 199.977 376.738, 195.701 367.865, 193.392 365.845 C 191.612 364.288, 191.074 364.407, 184.317 367.845 M 87.271 369.095 C 75.579 374.882, 69.600 390.334, 71.914 408.785 C 73.010 417.526, 75.642 428.619, 79.518 440.832 C 81.743 447.844, 82.360 448.775, 86.726 451.714 C 92.327 455.485, 97.328 457.667, 101.481 458.152 C 105.058 458.570, 105.725 457.442, 109.392 444.781 C 112.965 432.443, 114.371 420.338, 113.663 408 C 112.600 389.461, 107.209 374.171, 100 369.250 C 95.899 366.450, 92.693 366.411, 87.271 369.095 M 189.081 368 C 189.086 368.825, 190.137 371.501, 191.416 373.946 C 193.495 377.922, 193.813 378.164, 194.424 376.238 C 194.827 374.971, 194.485 372.935, 193.594 371.292 C 192.747 369.731, 192.047 369.161, 192.005 370 C 191.958 370.926, 191.382 370.544, 190.500 369 C 189.682 367.569, 189.075 367.142, 189.081 368 M 112.171 374.906 C 113.899 378.429, 116.112 382.112, 117.089 383.089 C 120.212 386.212, 122.195 389.875, 121.432 391.111 C 120.936 391.912, 121.116 392.046, 121.975 391.515 C 122.817 390.995, 123.107 391.178, 122.817 392.048 C 121.988 394.537, 120.384 394.044, 118.655 390.770 C 117.705 388.971, 117.151 388.277, 117.424 389.227 C 117.696 390.176, 118.448 394.901, 119.093 399.727 C 121.278 416.051, 118.835 437.885, 113.151 452.844 C 111.436 457.358, 111.401 457.854, 112.854 457.066 C 115.574 455.589, 119.655 450.751, 121.767 446.500 C 124.900 440.193, 126.002 432.922, 125.980 418.701 C 125.943 394.176, 123.128 383.391, 114.340 374.109 L 109.030 368.500 112.171 374.906 M 311.461 372.806 C 302.381 376.614, 293.369 384.636, 291.209 390.831 C 290.341 393.320, 290.611 393.819, 294.242 396.428 C 297.652 398.880, 298.066 398.993, 297.114 397.212 C 295.247 393.724, 295.744 392, 298.617 392 C 300.740 392, 301.135 391.624, 300.711 390.001 C 300.093 387.641, 301.623 386.448, 304.750 386.852 C 307.350 387.188, 307.411 386.995, 305.807 383.475 C 304.331 380.237, 305.765 379.038, 311.139 379.015 C 313.986 379.003, 314.748 378.619, 314.639 377.250 C 314.526 375.821, 315.219 375.544, 318.414 375.739 L 322.328 375.978 319.990 373.489 C 317.267 370.591, 316.826 370.555, 311.461 372.806 M 166.500 376.670 C 162.650 378.631, 159.365 380.355, 159.201 380.501 C 159.036 380.646, 160.048 382.455, 161.449 384.520 C 164.243 388.637, 165.742 393.225, 167.407 402.751 L 168.500 409.003 175.950 402.183 L 183.400 395.364 182.142 389.744 C 180.794 383.721, 176.145 373.745, 174.500 373.346 C 173.950 373.213, 170.350 374.709, 166.500 376.670 M 1127 382 L 1127 388 1133.500 388 L 1140 388 1140 382 L 1140 376 1133.500 376 L 1127 376 1127 382 M 173.413 379.494 C 174.001 382.737, 178.345 390.465, 178.805 389.086 C 179.198 387.906, 174.443 377, 173.536 377 C 173.220 377, 173.164 378.122, 173.413 379.494 M 147 386.772 L 140.500 390.500 143.688 393.776 C 147.810 398.012, 150.957 406.534, 151.816 415.792 L 152.500 423.154 158.750 417.493 C 165.999 410.927, 166.243 409.759, 163.103 396.636 C 161.085 388.205, 158.453 383.638, 155.400 383.272 C 154.355 383.147, 150.575 384.722, 147 386.772 M 156.713 390.012 C 157.131 391.609, 156.961 392.094, 156.158 391.597 C 154.372 390.494, 154.819 392.017, 158.039 398 C 161.360 404.169, 162.013 402.413, 159.367 394.428 C 157.676 389.324, 155.653 385.958, 156.713 390.012 M 134 393.455 C 131.510 394.834, 131.501 394.890, 131.863 407.159 C 132.185 418.111, 132.471 419.771, 134.436 422.107 C 136.438 424.486, 137.721 427.123, 139.397 432.308 C 139.911 433.896, 140.527 433.659, 144.491 430.346 L 149 426.576 148.921 420.038 C 148.878 416.442, 148.602 414.103, 148.308 414.840 C 147.982 415.656, 146.645 414.204, 144.887 411.125 C 143.299 408.345, 142 405.830, 142 405.535 C 142 404.084, 145.068 405.259, 146.046 407.086 C 146.660 408.233, 147.397 408.937, 147.684 408.650 C 148.477 407.856, 143.171 396.811, 140.768 394.253 C 138.329 391.657, 137.438 391.552, 134 393.455 M 415.072 405.200 C 412.516 406.568, 408.287 416.497, 405.914 426.700 C 405.225 429.659, 404.021 432.162, 403.120 432.507 C 401.032 433.309, 379.812 434.607, 346.500 435.971 C 314.074 437.299, 312.695 437.465, 313.480 439.938 C 313.908 441.285, 313.131 442.315, 310.530 443.850 C 306.644 446.143, 306.253 447.135, 308.500 449 C 311.024 451.094, 310.263 451.720, 303.041 453.490 C 294.984 455.464, 293.543 456.669, 294.917 460.281 C 296.279 463.864, 296.778 463.986, 304.276 462.577 C 311.529 461.214, 312.417 461.758, 309.794 465.958 C 308.799 467.552, 308.923 468.257, 310.508 470.009 C 312.325 472.017, 313.065 472.097, 324.463 471.522 C 331.084 471.187, 354.687 470.031, 376.916 468.951 C 399.144 467.871, 419.050 466.525, 421.150 465.960 C 428.393 464.009, 429.614 462.010, 433.952 445 C 439.124 424.717, 442.318 406.918, 441.019 405.619 C 439.417 404.017, 417.929 403.671, 415.072 405.200 M 417.390 408.745 C 415.724 409.877, 413.576 414.582, 410.600 423.614 C 409.129 428.076, 407.156 432.538, 406.213 433.529 C 404.777 435.040, 404.554 436.959, 404.833 445.416 C 405.069 452.573, 404.725 456.775, 403.650 459.895 L 402.134 464.290 410.983 463.662 C 423.163 462.797, 424.509 462.031, 426.893 454.605 C 431.644 439.805, 435.833 421.386, 436.241 413.500 L 436.500 408.500 427.500 408.245 C 422.550 408.105, 418 408.330, 417.390 408.745 M 428.568 413.250 C 428.365 413.938, 427.652 418.550, 426.984 423.500 C 426.315 428.450, 424.472 437.675, 422.887 444 C 419.544 457.343, 419.583 457, 421.379 457 C 423.527 457, 426.030 449.520, 428.408 436 C 430.691 423.021, 431.462 412, 430.086 412 C 429.454 412, 428.771 412.563, 428.568 413.250 M 232.500 414.204 C 231.400 414.804, 228.025 417.617, 225 420.455 C 221.975 423.293, 216.486 427.975, 212.801 430.859 C 209.117 433.743, 205.829 436.962, 205.496 438.013 C 204.588 440.873, 206.730 443.996, 210.054 444.661 C 211.674 444.985, 213 445.431, 213 445.652 C 213 445.873, 210.506 449.077, 207.457 452.773 C 201.239 460.312, 199.988 463.417, 202.257 465.685 C 204.801 468.229, 209.889 464.882, 219.410 454.401 C 229.330 443.479, 230.016 441.152, 224.217 438.097 C 221.952 436.904, 221.978 436.846, 227.458 430.697 C 230.496 427.289, 233.993 422.597, 235.228 420.272 C 237.213 416.534, 237.301 415.875, 235.986 414.579 C 234.845 413.453, 234.036 413.366, 232.500 414.204 M 131.686 429.554 C 131.321 433.433, 130.365 438.792, 129.561 441.463 L 128.100 446.318 132.607 441.909 C 136.713 437.892, 137.057 437.189, 136.475 434 C 136.123 432.075, 135.051 428.700, 134.093 426.500 L 132.350 422.500 131.686 429.554 M 835 436 L 835 442 841.500 442 L 848 442 848 436 L 848 430 841.500 430 L 835 430 835 436 M 981 436 L 981 442 987.500 442 L 994 442 994 436 L 994 430 987.500 430 L 981 430 981 436 M 1072 436 L 1072 442 1078.500 442 L 1085 442 1085 436 L 1085 430 1078.500 430 L 1072 430 1072 436 M 385.358 437.715 C 382.393 438.088, 382.180 438.402, 381.566 443.305 C 381.207 446.162, 379.668 452.212, 378.144 456.750 L 375.374 465 380.513 465 C 384.549 465, 386.104 464.518, 387.763 462.750 C 390.816 459.496, 395.731 448.352, 396.804 442.250 L 397.727 437 393.113 437.160 C 390.576 437.248, 387.086 437.498, 385.358 437.715 M 399.979 440.750 C 399.951 445.707, 395.823 457.233, 392.527 461.553 C 390.069 464.776, 390.027 465, 391.884 465 C 395.741 465, 398.743 463.158, 399.507 460.323 C 400.611 456.228, 401.635 436.999, 400.750 437 C 400.337 437, 399.991 438.688, 399.979 440.750 M 366.544 439.250 C 366.328 439.938, 365.957 442.869, 365.721 445.764 C 365.436 449.252, 364.061 453.376, 361.645 457.987 C 359.640 461.814, 358 465.204, 358 465.521 C 358 465.837, 360.800 465.961, 364.223 465.798 C 370.284 465.508, 370.501 465.400, 372.586 461.675 C 373.764 459.572, 375.715 454.172, 376.922 449.675 C 378.129 445.179, 379.346 440.712, 379.626 439.750 C 380.074 438.209, 379.348 438, 373.536 438 C 369.133 438, 366.806 438.416, 366.544 439.250 M 337.750 439.792 L 330 440.084 330 445.960 C 330 449.192, 329.727 452.548, 329.393 453.418 C 328.952 454.568, 329.392 455, 331.004 455 C 333.005 455, 333.165 455.367, 332.635 458.750 C 332.264 461.117, 332.349 461.773, 332.865 460.528 C 333.605 458.742, 333.731 458.812, 334.201 461.272 C 334.513 462.902, 334.182 464.434, 333.372 465.106 C 331.830 466.386, 331.489 465.785, 330.238 459.590 L 329.448 455.679 326.394 461.840 L 323.341 468 328.482 468 C 334.677 468, 337.166 466.065, 340.585 458.592 C 342.679 454.016, 346.544 439.962, 345.799 439.632 C 345.635 439.560, 342.012 439.631, 337.750 439.792 M 347.210 444.171 C 346.927 450.682, 345.466 456.148, 342.382 462.233 L 339.966 467 346.424 467 C 349.976 467, 353.131 466.598, 353.434 466.106 C 353.738 465.615, 353.291 463.548, 352.441 461.513 C 351.591 459.479, 351.080 457.293, 351.305 456.657 C 351.530 456.021, 352.430 457.188, 353.306 459.250 C 355.206 463.726, 356.338 464.269, 354.846 459.987 C 353.715 456.744, 354.372 453.494, 355.960 454.475 C 356.496 454.807, 356.718 456.523, 356.454 458.289 C 356.095 460.689, 356.842 459.731, 359.411 454.500 C 361.301 450.650, 363.147 445.587, 363.512 443.250 L 364.176 439 355.805 439 L 347.435 439 347.210 444.171 M 322.155 440.858 L 319.809 441.517 321.905 443.414 C 324.503 445.766, 324.516 446.530, 322 449.230 C 319.960 451.420, 319.257 453.577, 320.919 452.550 C 321.988 451.889, 323.433 457.491, 322.558 458.907 C 322.233 459.432, 322.403 460.131, 322.935 460.460 C 324.212 461.249, 328 448.861, 328 443.895 C 328 439.763, 327.317 439.408, 322.155 440.858 M 314.272 444.794 C 312.679 446.014, 312.213 447.141, 312.639 448.750 C 313.379 451.551, 316.102 451.650, 318.532 448.965 C 320.323 446.986, 320.320 446.876, 318.437 445.009 C 316.600 443.188, 316.385 443.177, 314.272 444.794 M 305.250 456.278 C 301.813 457.321, 299 458.585, 299 459.087 C 299 460.257, 299.771 460.236, 306.201 458.893 C 312.078 457.666, 313.257 456.987, 312.208 455.433 C 311.730 454.724, 309.470 454.999, 305.250 456.278 M 385 454.969 C 385 455.501, 384.354 455.689, 383.564 455.386 C 382.432 454.952, 382.285 455.420, 382.869 457.603 C 383.276 459.124, 384.219 460.573, 384.964 460.821 C 385.864 461.121, 386.114 460.740, 385.710 459.687 C 385.265 458.526, 385.536 458.268, 386.725 458.725 C 387.925 459.185, 388.185 458.925, 387.725 457.725 C 387.285 456.578, 387.530 456.266, 388.562 456.662 C 389.591 457.057, 389.840 456.746, 389.404 455.611 C 388.744 453.891, 385 453.344, 385 454.969 M 314.697 460.750 C 314.466 461.163, 313.975 462.762, 313.606 464.304 L 312.935 467.108 315.947 464.881 C 318.261 463.170, 318.703 462.348, 317.857 461.327 C 316.630 459.849, 315.335 459.613, 314.697 460.750" stroke="none" fill="#faf9f9" fill-rule="evenodd"/></svg>